M48
; DRILL file {KiCad 9.0.7} date 2026-09-23T22:32:38+0200
; FORMAT={-:-/ absolute / metric / decimal}
; #@! TF.CreationDate,2026-09-23T22:32:38+02:00
; #@! TF.GenerationSoftware,Kicad,Pcbnew,9.0.7
; #@! TF.FileFunction,Plated,1,2,PTH
FMAT,2
METRIC
; #@! TA.AperFunction,Plated,PTH,ComponentDrill
T1C0.800
; #@! TA.AperFunction,Plated,PTH,ComponentDrill
T2C0.900
%
G90
G05
T1
X151.19Y-84.5
X156.0Y-66.5
X156.0Y-74.12
X158.685Y-109.69
X158.685Y-112.23
X158.685Y-114.77
X158.685Y-117.31
X158.81Y-84.5
X162.5Y-66.5
X162.5Y-74.12
X162.56Y-95.46
X162.56Y-100.54
X165.1Y-98.0
X165.597Y-84.5
X166.305Y-109.69
X166.305Y-112.23
X166.305Y-114.77
X166.305Y-117.31
X169.0Y-66.5
X169.0Y-74.12
X170.597Y-84.5
T2
X145.225Y-56.5
X147.765Y-56.5
X161.225Y-51.5
X163.765Y-51.5
X177.46Y-56.5
X180.0Y-56.5
M30
