%TF.GenerationSoftware,KiCad,Pcbnew,9.0.7*%
%TF.CreationDate,2026-09-23T22:32:31+02:00*%
%TF.ProjectId,SolderPCB,536f6c64-6572-4504-9342-2e6b69636164,rev?*%
%TF.SameCoordinates,Original*%
%TF.FileFunction,Legend,Bot*%
%TF.FilePolarity,Positive*%
%FSLAX46Y46*%
G04 Gerber Fmt 4.6, Leading zero omitted, Abs format (unit mm)*
G04 Created by KiCad (PCBNEW 9.0.7) date 2026-09-23 22:32:31*
%MOMM*%
%LPD*%
G01*
G04 APERTURE LIST*
%ADD10C,0.400000*%
%ADD11C,0.300000*%
%ADD12C,0.750000*%
%ADD13C,0.000000*%
G04 APERTURE END LIST*
D10*
X173522557Y-120882057D02*
X173617795Y-120786819D01*
X173617795Y-120786819D02*
X173808271Y-120691580D01*
X173808271Y-120691580D02*
X173998747Y-120691580D01*
X173998747Y-120691580D02*
X174189223Y-120786819D01*
X174189223Y-120786819D02*
X174284462Y-120882057D01*
X174284462Y-120882057D02*
X174379700Y-121072533D01*
X174379700Y-121072533D02*
X174379700Y-121263009D01*
X174379700Y-121263009D02*
X174284462Y-121453485D01*
X174284462Y-121453485D02*
X174189223Y-121548723D01*
X174189223Y-121548723D02*
X173998747Y-121643961D01*
X173998747Y-121643961D02*
X173808271Y-121643961D01*
X173808271Y-121643961D02*
X173617795Y-121548723D01*
X173617795Y-121548723D02*
X173522557Y-121453485D01*
X173522557Y-120691580D02*
X173522557Y-121453485D01*
X173522557Y-121453485D02*
X173427319Y-121548723D01*
X173427319Y-121548723D02*
X173332081Y-121548723D01*
X173332081Y-121548723D02*
X173141604Y-121453485D01*
X173141604Y-121453485D02*
X173046366Y-121263009D01*
X173046366Y-121263009D02*
X173046366Y-120786819D01*
X173046366Y-120786819D02*
X173236843Y-120501104D01*
X173236843Y-120501104D02*
X173522557Y-120310628D01*
X173522557Y-120310628D02*
X173903509Y-120215390D01*
X173903509Y-120215390D02*
X174284462Y-120310628D01*
X174284462Y-120310628D02*
X174570176Y-120501104D01*
X174570176Y-120501104D02*
X174760652Y-120786819D01*
X174760652Y-120786819D02*
X174855890Y-121167771D01*
X174855890Y-121167771D02*
X174760652Y-121548723D01*
X174760652Y-121548723D02*
X174570176Y-121834438D01*
X174570176Y-121834438D02*
X174284462Y-122024914D01*
X174284462Y-122024914D02*
X173903509Y-122120152D01*
X173903509Y-122120152D02*
X173522557Y-122024914D01*
X173522557Y-122024914D02*
X173236843Y-121834438D01*
X171046366Y-121834438D02*
X171713033Y-120882057D01*
X172189223Y-121834438D02*
X172189223Y-119834438D01*
X172189223Y-119834438D02*
X171427318Y-119834438D01*
X171427318Y-119834438D02*
X171236842Y-119929676D01*
X171236842Y-119929676D02*
X171141604Y-120024914D01*
X171141604Y-120024914D02*
X171046366Y-120215390D01*
X171046366Y-120215390D02*
X171046366Y-120501104D01*
X171046366Y-120501104D02*
X171141604Y-120691580D01*
X171141604Y-120691580D02*
X171236842Y-120786819D01*
X171236842Y-120786819D02*
X171427318Y-120882057D01*
X171427318Y-120882057D02*
X172189223Y-120882057D01*
X169332080Y-121834438D02*
X169332080Y-120786819D01*
X169332080Y-120786819D02*
X169427318Y-120596342D01*
X169427318Y-120596342D02*
X169617794Y-120501104D01*
X169617794Y-120501104D02*
X169998747Y-120501104D01*
X169998747Y-120501104D02*
X170189223Y-120596342D01*
X169332080Y-121739200D02*
X169522556Y-121834438D01*
X169522556Y-121834438D02*
X169998747Y-121834438D01*
X169998747Y-121834438D02*
X170189223Y-121739200D01*
X170189223Y-121739200D02*
X170284461Y-121548723D01*
X170284461Y-121548723D02*
X170284461Y-121358247D01*
X170284461Y-121358247D02*
X170189223Y-121167771D01*
X170189223Y-121167771D02*
X169998747Y-121072533D01*
X169998747Y-121072533D02*
X169522556Y-121072533D01*
X169522556Y-121072533D02*
X169332080Y-120977295D01*
X168474937Y-121739200D02*
X168284461Y-121834438D01*
X168284461Y-121834438D02*
X167903509Y-121834438D01*
X167903509Y-121834438D02*
X167713032Y-121739200D01*
X167713032Y-121739200D02*
X167617794Y-121548723D01*
X167617794Y-121548723D02*
X167617794Y-121453485D01*
X167617794Y-121453485D02*
X167713032Y-121263009D01*
X167713032Y-121263009D02*
X167903509Y-121167771D01*
X167903509Y-121167771D02*
X168189223Y-121167771D01*
X168189223Y-121167771D02*
X168379699Y-121072533D01*
X168379699Y-121072533D02*
X168474937Y-120882057D01*
X168474937Y-120882057D02*
X168474937Y-120786819D01*
X168474937Y-120786819D02*
X168379699Y-120596342D01*
X168379699Y-120596342D02*
X168189223Y-120501104D01*
X168189223Y-120501104D02*
X167903509Y-120501104D01*
X167903509Y-120501104D02*
X167713032Y-120596342D01*
X166760651Y-121834438D02*
X166760651Y-120501104D01*
X166760651Y-120691580D02*
X166665413Y-120596342D01*
X166665413Y-120596342D02*
X166474937Y-120501104D01*
X166474937Y-120501104D02*
X166189222Y-120501104D01*
X166189222Y-120501104D02*
X165998746Y-120596342D01*
X165998746Y-120596342D02*
X165903508Y-120786819D01*
X165903508Y-120786819D02*
X165903508Y-121834438D01*
X165903508Y-120786819D02*
X165808270Y-120596342D01*
X165808270Y-120596342D02*
X165617794Y-120501104D01*
X165617794Y-120501104D02*
X165332080Y-120501104D01*
X165332080Y-120501104D02*
X165141603Y-120596342D01*
X165141603Y-120596342D02*
X165046365Y-120786819D01*
X165046365Y-120786819D02*
X165046365Y-121834438D01*
X163236841Y-120501104D02*
X163236841Y-121834438D01*
X164093984Y-120501104D02*
X164093984Y-121548723D01*
X164093984Y-121548723D02*
X163998746Y-121739200D01*
X163998746Y-121739200D02*
X163808270Y-121834438D01*
X163808270Y-121834438D02*
X163522555Y-121834438D01*
X163522555Y-121834438D02*
X163332079Y-121739200D01*
X163332079Y-121739200D02*
X163236841Y-121643961D01*
X162379698Y-121739200D02*
X162189222Y-121834438D01*
X162189222Y-121834438D02*
X161808270Y-121834438D01*
X161808270Y-121834438D02*
X161617793Y-121739200D01*
X161617793Y-121739200D02*
X161522555Y-121548723D01*
X161522555Y-121548723D02*
X161522555Y-121453485D01*
X161522555Y-121453485D02*
X161617793Y-121263009D01*
X161617793Y-121263009D02*
X161808270Y-121167771D01*
X161808270Y-121167771D02*
X162093984Y-121167771D01*
X162093984Y-121167771D02*
X162284460Y-121072533D01*
X162284460Y-121072533D02*
X162379698Y-120882057D01*
X162379698Y-120882057D02*
X162379698Y-120786819D01*
X162379698Y-120786819D02*
X162284460Y-120596342D01*
X162284460Y-120596342D02*
X162093984Y-120501104D01*
X162093984Y-120501104D02*
X161808270Y-120501104D01*
X161808270Y-120501104D02*
X161617793Y-120596342D01*
X160760650Y-121739200D02*
X160474936Y-121834438D01*
X160474936Y-121834438D02*
X159998745Y-121834438D01*
X159998745Y-121834438D02*
X159808269Y-121739200D01*
X159808269Y-121739200D02*
X159713031Y-121643961D01*
X159713031Y-121643961D02*
X159617793Y-121453485D01*
X159617793Y-121453485D02*
X159617793Y-121263009D01*
X159617793Y-121263009D02*
X159713031Y-121072533D01*
X159713031Y-121072533D02*
X159808269Y-120977295D01*
X159808269Y-120977295D02*
X159998745Y-120882057D01*
X159998745Y-120882057D02*
X160379698Y-120786819D01*
X160379698Y-120786819D02*
X160570174Y-120691580D01*
X160570174Y-120691580D02*
X160665412Y-120596342D01*
X160665412Y-120596342D02*
X160760650Y-120405866D01*
X160760650Y-120405866D02*
X160760650Y-120215390D01*
X160760650Y-120215390D02*
X160665412Y-120024914D01*
X160665412Y-120024914D02*
X160570174Y-119929676D01*
X160570174Y-119929676D02*
X160379698Y-119834438D01*
X160379698Y-119834438D02*
X159903507Y-119834438D01*
X159903507Y-119834438D02*
X159617793Y-119929676D01*
X159046364Y-120501104D02*
X158284460Y-120501104D01*
X158760650Y-119834438D02*
X158760650Y-121548723D01*
X158760650Y-121548723D02*
X158665412Y-121739200D01*
X158665412Y-121739200D02*
X158474936Y-121834438D01*
X158474936Y-121834438D02*
X158284460Y-121834438D01*
X156855888Y-121739200D02*
X157046364Y-121834438D01*
X157046364Y-121834438D02*
X157427317Y-121834438D01*
X157427317Y-121834438D02*
X157617793Y-121739200D01*
X157617793Y-121739200D02*
X157713031Y-121548723D01*
X157713031Y-121548723D02*
X157713031Y-120786819D01*
X157713031Y-120786819D02*
X157617793Y-120596342D01*
X157617793Y-120596342D02*
X157427317Y-120501104D01*
X157427317Y-120501104D02*
X157046364Y-120501104D01*
X157046364Y-120501104D02*
X156855888Y-120596342D01*
X156855888Y-120596342D02*
X156760650Y-120786819D01*
X156760650Y-120786819D02*
X156760650Y-120977295D01*
X156760650Y-120977295D02*
X157713031Y-121167771D01*
X155903507Y-120501104D02*
X155903507Y-121834438D01*
X155903507Y-120691580D02*
X155808269Y-120596342D01*
X155808269Y-120596342D02*
X155617793Y-120501104D01*
X155617793Y-120501104D02*
X155332078Y-120501104D01*
X155332078Y-120501104D02*
X155141602Y-120596342D01*
X155141602Y-120596342D02*
X155046364Y-120786819D01*
X155046364Y-120786819D02*
X155046364Y-121834438D01*
X153808269Y-121834438D02*
X153998745Y-121739200D01*
X153998745Y-121739200D02*
X154093983Y-121548723D01*
X154093983Y-121548723D02*
X154093983Y-119834438D01*
X152189221Y-120501104D02*
X152189221Y-121834438D01*
X153046364Y-120501104D02*
X153046364Y-121548723D01*
X153046364Y-121548723D02*
X152951126Y-121739200D01*
X152951126Y-121739200D02*
X152760650Y-121834438D01*
X152760650Y-121834438D02*
X152474935Y-121834438D01*
X152474935Y-121834438D02*
X152284459Y-121739200D01*
X152284459Y-121739200D02*
X152189221Y-121643961D01*
X151236840Y-120501104D02*
X151236840Y-121834438D01*
X151236840Y-120691580D02*
X151141602Y-120596342D01*
X151141602Y-120596342D02*
X150951126Y-120501104D01*
X150951126Y-120501104D02*
X150665411Y-120501104D01*
X150665411Y-120501104D02*
X150474935Y-120596342D01*
X150474935Y-120596342D02*
X150379697Y-120786819D01*
X150379697Y-120786819D02*
X150379697Y-121834438D01*
X148570173Y-121834438D02*
X148570173Y-119834438D01*
X148570173Y-121739200D02*
X148760649Y-121834438D01*
X148760649Y-121834438D02*
X149141602Y-121834438D01*
X149141602Y-121834438D02*
X149332078Y-121739200D01*
X149332078Y-121739200D02*
X149427316Y-121643961D01*
X149427316Y-121643961D02*
X149522554Y-121453485D01*
X149522554Y-121453485D02*
X149522554Y-120882057D01*
X149522554Y-120882057D02*
X149427316Y-120691580D01*
X149427316Y-120691580D02*
X149332078Y-120596342D01*
X149332078Y-120596342D02*
X149141602Y-120501104D01*
X149141602Y-120501104D02*
X148760649Y-120501104D01*
X148760649Y-120501104D02*
X148570173Y-120596342D01*
D11*
X180976441Y-117939638D02*
X180976441Y-115939638D01*
X180976441Y-115939638D02*
X180309774Y-117368209D01*
X180309774Y-117368209D02*
X179643108Y-115939638D01*
X179643108Y-115939638D02*
X179643108Y-117939638D01*
X177833584Y-117939638D02*
X177833584Y-116892019D01*
X177833584Y-116892019D02*
X177928822Y-116701542D01*
X177928822Y-116701542D02*
X178119298Y-116606304D01*
X178119298Y-116606304D02*
X178500251Y-116606304D01*
X178500251Y-116606304D02*
X178690727Y-116701542D01*
X177833584Y-117844400D02*
X178024060Y-117939638D01*
X178024060Y-117939638D02*
X178500251Y-117939638D01*
X178500251Y-117939638D02*
X178690727Y-117844400D01*
X178690727Y-117844400D02*
X178785965Y-117653923D01*
X178785965Y-117653923D02*
X178785965Y-117463447D01*
X178785965Y-117463447D02*
X178690727Y-117272971D01*
X178690727Y-117272971D02*
X178500251Y-117177733D01*
X178500251Y-117177733D02*
X178024060Y-117177733D01*
X178024060Y-117177733D02*
X177833584Y-117082495D01*
X176024060Y-117939638D02*
X176024060Y-115939638D01*
X176024060Y-117844400D02*
X176214536Y-117939638D01*
X176214536Y-117939638D02*
X176595489Y-117939638D01*
X176595489Y-117939638D02*
X176785965Y-117844400D01*
X176785965Y-117844400D02*
X176881203Y-117749161D01*
X176881203Y-117749161D02*
X176976441Y-117558685D01*
X176976441Y-117558685D02*
X176976441Y-116987257D01*
X176976441Y-116987257D02*
X176881203Y-116796780D01*
X176881203Y-116796780D02*
X176785965Y-116701542D01*
X176785965Y-116701542D02*
X176595489Y-116606304D01*
X176595489Y-116606304D02*
X176214536Y-116606304D01*
X176214536Y-116606304D02*
X176024060Y-116701542D01*
X174309774Y-117844400D02*
X174500250Y-117939638D01*
X174500250Y-117939638D02*
X174881203Y-117939638D01*
X174881203Y-117939638D02*
X175071679Y-117844400D01*
X175071679Y-117844400D02*
X175166917Y-117653923D01*
X175166917Y-117653923D02*
X175166917Y-116892019D01*
X175166917Y-116892019D02*
X175071679Y-116701542D01*
X175071679Y-116701542D02*
X174881203Y-116606304D01*
X174881203Y-116606304D02*
X174500250Y-116606304D01*
X174500250Y-116606304D02*
X174309774Y-116701542D01*
X174309774Y-116701542D02*
X174214536Y-116892019D01*
X174214536Y-116892019D02*
X174214536Y-117082495D01*
X174214536Y-117082495D02*
X175166917Y-117272971D01*
X171833583Y-117939638D02*
X171833583Y-115939638D01*
X171833583Y-116701542D02*
X171643107Y-116606304D01*
X171643107Y-116606304D02*
X171262154Y-116606304D01*
X171262154Y-116606304D02*
X171071678Y-116701542D01*
X171071678Y-116701542D02*
X170976440Y-116796780D01*
X170976440Y-116796780D02*
X170881202Y-116987257D01*
X170881202Y-116987257D02*
X170881202Y-117558685D01*
X170881202Y-117558685D02*
X170976440Y-117749161D01*
X170976440Y-117749161D02*
X171071678Y-117844400D01*
X171071678Y-117844400D02*
X171262154Y-117939638D01*
X171262154Y-117939638D02*
X171643107Y-117939638D01*
X171643107Y-117939638D02*
X171833583Y-117844400D01*
X170214535Y-116606304D02*
X169738345Y-117939638D01*
X169262154Y-116606304D02*
X169738345Y-117939638D01*
X169738345Y-117939638D02*
X169928821Y-118415828D01*
X169928821Y-118415828D02*
X170024059Y-118511066D01*
X170024059Y-118511066D02*
X170214535Y-118606304D01*
D12*
X171192293Y-59143857D02*
X171192293Y-56143857D01*
X171192293Y-56143857D02*
X170192293Y-58286714D01*
X170192293Y-58286714D02*
X169192293Y-56143857D01*
X169192293Y-56143857D02*
X169192293Y-59143857D01*
X166478008Y-59143857D02*
X166478008Y-57572428D01*
X166478008Y-57572428D02*
X166620865Y-57286714D01*
X166620865Y-57286714D02*
X166906579Y-57143857D01*
X166906579Y-57143857D02*
X167478008Y-57143857D01*
X167478008Y-57143857D02*
X167763722Y-57286714D01*
X166478008Y-59001000D02*
X166763722Y-59143857D01*
X166763722Y-59143857D02*
X167478008Y-59143857D01*
X167478008Y-59143857D02*
X167763722Y-59001000D01*
X167763722Y-59001000D02*
X167906579Y-58715285D01*
X167906579Y-58715285D02*
X167906579Y-58429571D01*
X167906579Y-58429571D02*
X167763722Y-58143857D01*
X167763722Y-58143857D02*
X167478008Y-58001000D01*
X167478008Y-58001000D02*
X166763722Y-58001000D01*
X166763722Y-58001000D02*
X166478008Y-57858142D01*
X163763722Y-59143857D02*
X163763722Y-56143857D01*
X163763722Y-59001000D02*
X164049436Y-59143857D01*
X164049436Y-59143857D02*
X164620864Y-59143857D01*
X164620864Y-59143857D02*
X164906579Y-59001000D01*
X164906579Y-59001000D02*
X165049436Y-58858142D01*
X165049436Y-58858142D02*
X165192293Y-58572428D01*
X165192293Y-58572428D02*
X165192293Y-57715285D01*
X165192293Y-57715285D02*
X165049436Y-57429571D01*
X165049436Y-57429571D02*
X164906579Y-57286714D01*
X164906579Y-57286714D02*
X164620864Y-57143857D01*
X164620864Y-57143857D02*
X164049436Y-57143857D01*
X164049436Y-57143857D02*
X163763722Y-57286714D01*
X161192293Y-59001000D02*
X161478007Y-59143857D01*
X161478007Y-59143857D02*
X162049436Y-59143857D01*
X162049436Y-59143857D02*
X162335150Y-59001000D01*
X162335150Y-59001000D02*
X162478007Y-58715285D01*
X162478007Y-58715285D02*
X162478007Y-57572428D01*
X162478007Y-57572428D02*
X162335150Y-57286714D01*
X162335150Y-57286714D02*
X162049436Y-57143857D01*
X162049436Y-57143857D02*
X161478007Y-57143857D01*
X161478007Y-57143857D02*
X161192293Y-57286714D01*
X161192293Y-57286714D02*
X161049436Y-57572428D01*
X161049436Y-57572428D02*
X161049436Y-57858142D01*
X161049436Y-57858142D02*
X162478007Y-58143857D01*
X157906578Y-57143857D02*
X156763721Y-57143857D01*
X157478007Y-59143857D02*
X157478007Y-56572428D01*
X157478007Y-56572428D02*
X157335150Y-56286714D01*
X157335150Y-56286714D02*
X157049435Y-56143857D01*
X157049435Y-56143857D02*
X156763721Y-56143857D01*
X155335149Y-59143857D02*
X155620864Y-59001000D01*
X155620864Y-59001000D02*
X155763721Y-58858142D01*
X155763721Y-58858142D02*
X155906578Y-58572428D01*
X155906578Y-58572428D02*
X155906578Y-57715285D01*
X155906578Y-57715285D02*
X155763721Y-57429571D01*
X155763721Y-57429571D02*
X155620864Y-57286714D01*
X155620864Y-57286714D02*
X155335149Y-57143857D01*
X155335149Y-57143857D02*
X154906578Y-57143857D01*
X154906578Y-57143857D02*
X154620864Y-57286714D01*
X154620864Y-57286714D02*
X154478007Y-57429571D01*
X154478007Y-57429571D02*
X154335149Y-57715285D01*
X154335149Y-57715285D02*
X154335149Y-58572428D01*
X154335149Y-58572428D02*
X154478007Y-58858142D01*
X154478007Y-58858142D02*
X154620864Y-59001000D01*
X154620864Y-59001000D02*
X154906578Y-59143857D01*
X154906578Y-59143857D02*
X155335149Y-59143857D01*
X153049435Y-59143857D02*
X153049435Y-57143857D01*
X153049435Y-57715285D02*
X152906578Y-57429571D01*
X152906578Y-57429571D02*
X152763721Y-57286714D01*
X152763721Y-57286714D02*
X152478006Y-57143857D01*
X152478006Y-57143857D02*
X152192292Y-57143857D01*
D13*
%TO.C,G\u002A\u002A\u002A*%
G36*
X181793594Y-74889291D02*
G01*
X182013110Y-74947744D01*
X182090206Y-75064228D01*
X182046576Y-75266545D01*
X181927505Y-75450253D01*
X181770878Y-75472383D01*
X181581368Y-75328965D01*
X181505505Y-75227425D01*
X181455882Y-75040690D01*
X181541014Y-74914710D01*
X181748010Y-74883913D01*
X181793594Y-74889291D01*
G37*
G36*
X181592366Y-75794051D02*
G01*
X181684839Y-75831644D01*
X181793963Y-75937143D01*
X181799985Y-76129467D01*
X181768584Y-76321301D01*
X181731488Y-76444499D01*
X181720098Y-76461403D01*
X181648094Y-76501741D01*
X181519836Y-76463327D01*
X181294729Y-76336084D01*
X181285260Y-76330221D01*
X181101224Y-76151887D01*
X181060407Y-75971788D01*
X181142319Y-75827238D01*
X181326469Y-75755554D01*
X181592366Y-75794051D01*
G37*
G36*
X194687980Y-74392337D02*
G01*
X194757265Y-74470328D01*
X194882899Y-74640756D01*
X195034136Y-74858486D01*
X195180230Y-75078383D01*
X195290434Y-75255312D01*
X195334001Y-75344140D01*
X195291986Y-75384350D01*
X195143501Y-75432247D01*
X194979020Y-75462919D01*
X194791403Y-75477058D01*
X194695844Y-75415761D01*
X194661285Y-75247729D01*
X194656667Y-74941666D01*
X194660355Y-74670702D01*
X194670534Y-74468584D01*
X194684928Y-74391333D01*
X194687980Y-74392337D01*
G37*
G36*
X202305427Y-76540870D02*
G01*
X202331115Y-76635431D01*
X202632028Y-77743150D01*
X202868997Y-78895150D01*
X203005544Y-79958166D01*
X203063014Y-80656666D01*
X202669841Y-80656666D01*
X202276667Y-80656666D01*
X202276667Y-80026002D01*
X202267176Y-79720060D01*
X202240295Y-79329297D01*
X202200259Y-78896620D01*
X202151316Y-78457162D01*
X202097711Y-78046055D01*
X202043689Y-77698432D01*
X201993495Y-77449428D01*
X201951377Y-77334175D01*
X201945088Y-77329416D01*
X201815247Y-77291235D01*
X201570117Y-77251415D01*
X201256818Y-77217849D01*
X200899008Y-77201504D01*
X200426001Y-77215969D01*
X199889352Y-77269956D01*
X199275472Y-77366233D01*
X198570773Y-77507565D01*
X197761665Y-77696718D01*
X196834559Y-77936460D01*
X196805453Y-77944518D01*
X195775868Y-78229557D01*
X194572001Y-78578775D01*
X193676445Y-78834960D01*
X192368273Y-79173230D01*
X191165551Y-79434451D01*
X190042707Y-79622657D01*
X188974168Y-79741884D01*
X187934361Y-79796166D01*
X186897715Y-79789538D01*
X186595602Y-79777561D01*
X186107774Y-79746189D01*
X185708500Y-79698016D01*
X185344460Y-79625665D01*
X184962334Y-79521758D01*
X184545876Y-79385281D01*
X183651806Y-79025312D01*
X182693211Y-78560405D01*
X181699977Y-78006689D01*
X181357541Y-77791756D01*
X184260561Y-77791756D01*
X184337321Y-77892134D01*
X184506117Y-78006840D01*
X184548295Y-78025587D01*
X184783909Y-78099519D01*
X185079310Y-78162649D01*
X185378753Y-78206380D01*
X185626494Y-78222115D01*
X185766788Y-78201258D01*
X185791847Y-78153298D01*
X186466422Y-78153298D01*
X186482879Y-78316233D01*
X186559360Y-78445672D01*
X186561422Y-78447357D01*
X186731854Y-78530946D01*
X186965613Y-78589358D01*
X187325746Y-78570694D01*
X187616118Y-78404431D01*
X187829294Y-78098530D01*
X187959559Y-77661204D01*
X188001202Y-77100666D01*
X187993826Y-76877688D01*
X187917505Y-76379147D01*
X187757740Y-76025875D01*
X187513151Y-75815587D01*
X187182356Y-75745999D01*
X187180617Y-75746004D01*
X186953444Y-75816151D01*
X186772098Y-75985985D01*
X186716797Y-76144344D01*
X186698001Y-76198166D01*
X186718525Y-76279095D01*
X186817014Y-76310061D01*
X187036479Y-76286542D01*
X187148988Y-76269660D01*
X187316134Y-76270055D01*
X187415345Y-76354062D01*
X187511316Y-76558769D01*
X187554292Y-76685367D01*
X187593703Y-77022800D01*
X187548588Y-77363218D01*
X187434447Y-77672189D01*
X187266780Y-77915276D01*
X187061086Y-78058046D01*
X186832864Y-78066063D01*
X186716277Y-78033285D01*
X186573011Y-78001080D01*
X186507806Y-78027982D01*
X186466422Y-78153298D01*
X185791847Y-78153298D01*
X185804217Y-78129624D01*
X185859226Y-77918425D01*
X185918446Y-77607952D01*
X185976457Y-77236756D01*
X186027842Y-76843388D01*
X186067180Y-76466401D01*
X186089053Y-76144344D01*
X186088043Y-75915771D01*
X186086376Y-75897718D01*
X186028846Y-75682588D01*
X185968558Y-75645225D01*
X189444339Y-75645225D01*
X189451207Y-75792922D01*
X189582600Y-76041393D01*
X189849647Y-76382466D01*
X190188065Y-76766930D01*
X190044496Y-77100666D01*
X190012351Y-77175388D01*
X189910869Y-77431534D01*
X189791420Y-77861873D01*
X189777473Y-78188566D01*
X189870553Y-78398456D01*
X189972714Y-78486361D01*
X190077593Y-78539999D01*
X190149460Y-78518376D01*
X190284685Y-78357515D01*
X190405216Y-78055186D01*
X190502441Y-77629833D01*
X190571543Y-77301767D01*
X190658199Y-77082329D01*
X190758723Y-77027164D01*
X190879216Y-77133580D01*
X191025778Y-77398886D01*
X191156159Y-77630674D01*
X191341438Y-77865892D01*
X191530627Y-78031771D01*
X191697828Y-78111425D01*
X191817141Y-78087969D01*
X191862667Y-77944518D01*
X191846992Y-77848845D01*
X191769970Y-77619580D01*
X191650295Y-77353274D01*
X191550148Y-77137941D01*
X191360285Y-76608469D01*
X191232275Y-76070157D01*
X191185334Y-75595645D01*
X191160775Y-75290634D01*
X191078069Y-75038411D01*
X190951980Y-74913971D01*
X190798078Y-74931154D01*
X190736979Y-74994643D01*
X190631934Y-75103798D01*
X190621376Y-75120392D01*
X190552194Y-75286653D01*
X190533787Y-75500742D01*
X190532978Y-75510154D01*
X190558394Y-75844631D01*
X190618824Y-76380999D01*
X190274570Y-76070487D01*
X190059601Y-75888476D01*
X189759665Y-75684831D01*
X189550868Y-75606471D01*
X189444339Y-75645225D01*
X185968558Y-75645225D01*
X185930223Y-75621467D01*
X185813192Y-75712198D01*
X185700439Y-75952624D01*
X185687735Y-75994838D01*
X185628222Y-76267780D01*
X185572342Y-76628609D01*
X185530737Y-77010957D01*
X185470334Y-77735666D01*
X184846975Y-77707089D01*
X184625686Y-77699224D01*
X184388654Y-77703902D01*
X184275990Y-77733441D01*
X184260561Y-77791756D01*
X181357541Y-77791756D01*
X180701991Y-77380295D01*
X179729139Y-76697353D01*
X179524577Y-76543803D01*
X179089067Y-76207801D01*
X178663028Y-75869052D01*
X180735326Y-75869052D01*
X180750256Y-76151062D01*
X180913622Y-76429685D01*
X181220434Y-76681058D01*
X181430198Y-76780181D01*
X181683642Y-76838732D01*
X181889382Y-76826931D01*
X181996185Y-76740833D01*
X182036184Y-76615076D01*
X182730699Y-76615076D01*
X182770657Y-77059269D01*
X182899542Y-77363496D01*
X183118401Y-77531122D01*
X183216197Y-77567261D01*
X183355129Y-77598420D01*
X183492639Y-77573111D01*
X183706834Y-77485242D01*
X183731130Y-77474421D01*
X183894496Y-77379069D01*
X184023714Y-77242267D01*
X184135994Y-77032944D01*
X184248549Y-76720027D01*
X184378588Y-76272442D01*
X184415748Y-76133878D01*
X184501506Y-75751155D01*
X184521594Y-75500742D01*
X184475719Y-75364094D01*
X184363588Y-75322666D01*
X184307451Y-75332256D01*
X184219881Y-75405690D01*
X184137222Y-75572338D01*
X184048713Y-75856830D01*
X183943591Y-76283797D01*
X183940657Y-76296452D01*
X183822830Y-76726928D01*
X183701135Y-77004730D01*
X183565760Y-77146004D01*
X183406891Y-77166899D01*
X183357147Y-77146497D01*
X183303733Y-77057874D01*
X183278612Y-76870297D01*
X183274288Y-76548837D01*
X183280517Y-76241905D01*
X183296076Y-75851189D01*
X183316622Y-75534333D01*
X183328805Y-75275206D01*
X183301385Y-75146036D01*
X183226667Y-75110999D01*
X183158176Y-75131920D01*
X183023687Y-75284139D01*
X182901293Y-75556275D01*
X182803939Y-75915613D01*
X182744569Y-76329438D01*
X182730699Y-76615076D01*
X182036184Y-76615076D01*
X182044569Y-76588715D01*
X182167866Y-76181314D01*
X182282001Y-75779154D01*
X182376498Y-75421288D01*
X182440879Y-75146767D01*
X182464667Y-74994643D01*
X182458826Y-74949736D01*
X182426918Y-74903035D01*
X191743938Y-74903035D01*
X191818502Y-75122812D01*
X191892377Y-75213425D01*
X191972810Y-75227030D01*
X192102953Y-75123411D01*
X192272179Y-75019370D01*
X192471376Y-75037190D01*
X192667421Y-75217617D01*
X192865970Y-75563914D01*
X192993146Y-75898644D01*
X193080165Y-76298077D01*
X193099007Y-76666930D01*
X193048127Y-76964434D01*
X192925985Y-77149824D01*
X192793739Y-77219699D01*
X192566152Y-77269999D01*
X192533940Y-77271813D01*
X192397074Y-77349464D01*
X192372340Y-77502407D01*
X192472267Y-77676399D01*
X192566081Y-77736072D01*
X192807531Y-77774690D01*
X193084030Y-77729927D01*
X193326787Y-77607342D01*
X193450832Y-77486646D01*
X193632489Y-77161004D01*
X193718164Y-76759918D01*
X193716790Y-76313764D01*
X193637302Y-75852913D01*
X193488634Y-75407742D01*
X193279720Y-75008624D01*
X193019494Y-74685934D01*
X192928951Y-74621337D01*
X194180730Y-74621337D01*
X194197274Y-75076058D01*
X194244577Y-75563922D01*
X194317421Y-76044447D01*
X194410588Y-76477151D01*
X194499483Y-76759918D01*
X194518859Y-76821552D01*
X194637017Y-77037166D01*
X194760087Y-77127355D01*
X194977201Y-77185333D01*
X194998926Y-77185235D01*
X195095337Y-77173757D01*
X195144519Y-77121259D01*
X195148554Y-76996794D01*
X195109527Y-76769417D01*
X195029519Y-76408181D01*
X195010135Y-76261354D01*
X195072247Y-76186130D01*
X195261780Y-76154181D01*
X195273040Y-76153149D01*
X195468538Y-76162283D01*
X195640652Y-76249403D01*
X195850162Y-76444499D01*
X195967419Y-76561411D01*
X196174730Y-76722778D01*
X196314966Y-76746840D01*
X196402632Y-76638695D01*
X196403503Y-76635431D01*
X196373315Y-76518238D01*
X196275409Y-76285084D01*
X196124939Y-75964908D01*
X195937061Y-75586647D01*
X195726930Y-75179239D01*
X195509701Y-74771620D01*
X195300528Y-74392728D01*
X195114567Y-74071501D01*
X194966973Y-73836875D01*
X194872900Y-73717788D01*
X194791924Y-73663567D01*
X194579599Y-73632831D01*
X194388690Y-73752728D01*
X194246858Y-74010333D01*
X194200164Y-74240243D01*
X194180730Y-74621337D01*
X192928951Y-74621337D01*
X192716891Y-74470045D01*
X192380844Y-74391333D01*
X192241469Y-74404167D01*
X191982957Y-74507895D01*
X191807935Y-74686123D01*
X191743938Y-74903035D01*
X182426918Y-74903035D01*
X182347239Y-74786415D01*
X182130670Y-74641530D01*
X181857587Y-74531199D01*
X181576458Y-74471541D01*
X181335750Y-74478675D01*
X181183932Y-74568719D01*
X181170500Y-74594761D01*
X181133584Y-74779706D01*
X181133149Y-75026333D01*
X181139594Y-75168705D01*
X181101359Y-75367959D01*
X180976000Y-75511827D01*
X180873819Y-75607514D01*
X180735326Y-75869052D01*
X178663028Y-75869052D01*
X178645974Y-75855492D01*
X178215534Y-75503983D01*
X177817981Y-75170384D01*
X177473550Y-74871801D01*
X177202475Y-74625343D01*
X177024992Y-74448117D01*
X176961334Y-74357232D01*
X176977130Y-74349170D01*
X177121604Y-74332397D01*
X177392740Y-74318912D01*
X177760861Y-74309930D01*
X178196288Y-74306666D01*
X179431241Y-74306666D01*
X178867229Y-73240613D01*
X178788496Y-73090689D01*
X178601901Y-72725324D01*
X178456533Y-72425958D01*
X178365527Y-72220224D01*
X178342020Y-72135758D01*
X178397223Y-72145777D01*
X178575923Y-72219432D01*
X178845648Y-72347788D01*
X179173911Y-72515997D01*
X179378307Y-72622051D01*
X180674650Y-73211057D01*
X182014294Y-73684271D01*
X183370997Y-74035906D01*
X184718515Y-74260178D01*
X186030604Y-74351298D01*
X187281021Y-74303482D01*
X187916380Y-74225367D01*
X189051549Y-74000122D01*
X190181657Y-73658287D01*
X190603135Y-73488843D01*
X196283700Y-73488843D01*
X196294423Y-73755485D01*
X196319168Y-73901664D01*
X196398985Y-74250246D01*
X196511472Y-74660399D01*
X196644314Y-75094486D01*
X196785192Y-75514875D01*
X196921791Y-75883930D01*
X197041794Y-76164016D01*
X197132885Y-76317499D01*
X197305708Y-76464041D01*
X197487390Y-76513776D01*
X197610623Y-76422356D01*
X197659823Y-76204018D01*
X197619407Y-75872999D01*
X197590765Y-75747970D01*
X197542354Y-75457616D01*
X197562107Y-75275122D01*
X197661706Y-75160487D01*
X197852834Y-75073709D01*
X197908234Y-75053859D01*
X198130092Y-74973972D01*
X198271130Y-74922575D01*
X198335079Y-74947693D01*
X198456268Y-75089117D01*
X198591681Y-75318745D01*
X198664926Y-75451259D01*
X198888783Y-75738294D01*
X199123909Y-75888472D01*
X199350268Y-75886787D01*
X199376650Y-75873993D01*
X199468172Y-75723511D01*
X199458987Y-75448323D01*
X199349110Y-75058144D01*
X199305687Y-74925778D01*
X199214892Y-74609328D01*
X199112539Y-74217326D01*
X199013584Y-73805604D01*
X198920791Y-73424117D01*
X198823859Y-73107720D01*
X198728308Y-72912324D01*
X198621247Y-72812786D01*
X198489786Y-72783962D01*
X198349907Y-72850823D01*
X198220038Y-73050429D01*
X198127279Y-73344697D01*
X198088614Y-73695054D01*
X198088314Y-73713372D01*
X198077697Y-73976238D01*
X198036189Y-74127269D01*
X197932577Y-74221025D01*
X197735652Y-74312064D01*
X197390352Y-74458713D01*
X197108113Y-73875297D01*
X196907548Y-73510648D01*
X196723165Y-73292994D01*
X196550429Y-73225953D01*
X196379214Y-73301554D01*
X196349623Y-73330035D01*
X196283700Y-73488843D01*
X190603135Y-73488843D01*
X191354667Y-73186710D01*
X191517531Y-73114281D01*
X192607045Y-72650532D01*
X193585182Y-72275884D01*
X194476311Y-71983867D01*
X195304802Y-71768009D01*
X196095025Y-71621837D01*
X196871349Y-71538880D01*
X197658144Y-71512666D01*
X197747204Y-71512893D01*
X198367673Y-71531669D01*
X198877851Y-71584053D01*
X199328054Y-71674937D01*
X199378608Y-71687702D01*
X199699164Y-71761224D01*
X199961842Y-71809669D01*
X200113952Y-71823103D01*
X200203987Y-71854080D01*
X200340466Y-71995770D01*
X200514077Y-72259987D01*
X200730123Y-72655839D01*
X200993908Y-73192436D01*
X201310735Y-73878888D01*
X201426493Y-74140301D01*
X201899985Y-75327018D01*
X202032419Y-75723511D01*
X202305427Y-76540870D01*
G37*
G36*
X131650751Y-67205103D02*
G01*
X131719921Y-67348939D01*
X131679430Y-67469314D01*
X131533771Y-67551984D01*
X131287433Y-67582706D01*
X131138843Y-67591779D01*
X130873510Y-67674809D01*
X130685992Y-67846119D01*
X130574668Y-68107606D01*
X130537921Y-68461170D01*
X130534342Y-68552902D01*
X130507838Y-68722292D01*
X130463983Y-68822546D01*
X130383960Y-68865179D01*
X130240915Y-68879056D01*
X130234572Y-68878302D01*
X130166225Y-68863415D01*
X130122249Y-68823272D01*
X130095193Y-68734474D01*
X130077608Y-68573625D01*
X130062042Y-68317328D01*
X130039925Y-68043008D01*
X129993800Y-67803034D01*
X129916355Y-67644393D01*
X129796866Y-67546804D01*
X129624610Y-67489981D01*
X129406715Y-67419242D01*
X129295848Y-67322237D01*
X129299884Y-67215104D01*
X130132220Y-67215104D01*
X130260714Y-67329703D01*
X130316873Y-67377836D01*
X130387452Y-67410903D01*
X130470704Y-67385328D01*
X130609560Y-67297099D01*
X130829911Y-67149896D01*
X130735835Y-66964779D01*
X130725640Y-66944798D01*
X130660419Y-66821023D01*
X130624540Y-66759833D01*
X130594505Y-66774106D01*
X130501108Y-66852153D01*
X130369770Y-66977555D01*
X130132220Y-67215104D01*
X129299884Y-67215104D01*
X129300294Y-67204208D01*
X129419871Y-67068613D01*
X129654400Y-66918910D01*
X129668277Y-66911472D01*
X129944163Y-66735512D01*
X130119989Y-66547807D01*
X130212959Y-66322348D01*
X130240274Y-66033127D01*
X130245800Y-65880412D01*
X130286037Y-65691235D01*
X130373733Y-65590153D01*
X130518866Y-65560223D01*
X130561545Y-65565042D01*
X130673907Y-65636167D01*
X130789522Y-65806229D01*
X130825777Y-65872011D01*
X130923988Y-66048067D01*
X130998051Y-66178008D01*
X131047149Y-66307568D01*
X131072407Y-66483873D01*
X131098359Y-66651793D01*
X131222503Y-66858780D01*
X131456819Y-67045417D01*
X131467431Y-67052050D01*
X131584627Y-67149896D01*
X131650751Y-67205103D01*
G37*
G36*
X163179797Y-65159825D02*
G01*
X163122422Y-65756915D01*
X162959199Y-66319409D01*
X162698301Y-66835663D01*
X162347897Y-67294031D01*
X161916162Y-67682869D01*
X161411266Y-67990532D01*
X160841383Y-68205375D01*
X160770575Y-68222525D01*
X160465493Y-68266575D01*
X160098959Y-68287107D01*
X159713758Y-68284080D01*
X159352676Y-68257449D01*
X159058498Y-68207172D01*
X158969724Y-68182858D01*
X158566723Y-68035016D01*
X158142553Y-67829711D01*
X157743585Y-67591309D01*
X157416185Y-67344176D01*
X157343898Y-67278659D01*
X156937954Y-66824450D01*
X156636608Y-66321995D01*
X156441613Y-65781705D01*
X156354724Y-65213989D01*
X156362154Y-65024860D01*
X158257827Y-65024860D01*
X158262598Y-65179975D01*
X158336281Y-65620736D01*
X158494927Y-65994379D01*
X158733241Y-66290991D01*
X159045928Y-66500657D01*
X159398586Y-66620315D01*
X159787793Y-66651445D01*
X160154364Y-66581254D01*
X160484725Y-66419080D01*
X160765301Y-66174265D01*
X160982518Y-65856148D01*
X161122803Y-65474069D01*
X161172581Y-65037367D01*
X161130507Y-64590596D01*
X161000920Y-64187099D01*
X160790953Y-63857471D01*
X160507830Y-63610059D01*
X160158777Y-63453209D01*
X159751021Y-63395268D01*
X159727944Y-63395104D01*
X159307438Y-63446227D01*
X158947944Y-63595574D01*
X158656349Y-63835626D01*
X158439539Y-64158869D01*
X158304403Y-64557786D01*
X158257827Y-65024860D01*
X156362154Y-65024860D01*
X156377694Y-64629258D01*
X156512278Y-64037923D01*
X156760227Y-63450394D01*
X156880373Y-63242433D01*
X157237756Y-62783788D01*
X157674539Y-62400532D01*
X158176135Y-62100388D01*
X158727959Y-61891074D01*
X159315423Y-61780313D01*
X159923943Y-61775825D01*
X160562554Y-61870351D01*
X161186038Y-62059168D01*
X161731630Y-62334318D01*
X162195848Y-62692459D01*
X162575210Y-63130253D01*
X162866231Y-63644360D01*
X163065430Y-64231438D01*
X163169324Y-64888149D01*
X163175076Y-65037367D01*
X163179797Y-65159825D01*
G37*
G36*
X171748354Y-67676364D02*
G01*
X171754245Y-67795041D01*
X171644674Y-67893185D01*
X171419559Y-67967055D01*
X171344077Y-67986838D01*
X171175092Y-68077302D01*
X171065129Y-68231871D01*
X171005513Y-68467276D01*
X170987569Y-68800252D01*
X170987145Y-68871837D01*
X170980130Y-69091202D01*
X170966278Y-69253421D01*
X170947913Y-69327593D01*
X170947332Y-69328167D01*
X170840886Y-69365260D01*
X170697078Y-69352547D01*
X170583073Y-69295867D01*
X170571271Y-69280846D01*
X170528845Y-69159383D01*
X170511691Y-68990474D01*
X170502516Y-68791558D01*
X170430045Y-68469276D01*
X170284703Y-68240400D01*
X170065640Y-68103860D01*
X169772006Y-68058584D01*
X169724262Y-68057929D01*
X169482490Y-68024547D01*
X169349148Y-67945447D01*
X169326068Y-67827261D01*
X169415077Y-67676625D01*
X169474553Y-67624909D01*
X170220149Y-67624909D01*
X170449271Y-67774919D01*
X170557742Y-67844538D01*
X170653898Y-67889628D01*
X170719988Y-67875774D01*
X170796629Y-67806693D01*
X170804787Y-67798528D01*
X170863719Y-67730383D01*
X170869154Y-67670439D01*
X170810853Y-67587950D01*
X170678579Y-67452170D01*
X170577071Y-67354156D01*
X170472467Y-67263007D01*
X170425072Y-67235711D01*
X170422733Y-67238831D01*
X170381365Y-67311308D01*
X170314000Y-67440224D01*
X170220149Y-67624909D01*
X169474553Y-67624909D01*
X169618007Y-67500173D01*
X169747491Y-67396132D01*
X169879486Y-67259544D01*
X169941254Y-67152555D01*
X169967579Y-67013257D01*
X169999001Y-66832597D01*
X170048188Y-66659224D01*
X170145762Y-66449952D01*
X170268095Y-66256487D01*
X170394407Y-66111187D01*
X170503917Y-66046406D01*
X170513103Y-66045142D01*
X170647465Y-66054478D01*
X170736912Y-66134377D01*
X170790946Y-66300596D01*
X170819073Y-66568892D01*
X170840864Y-66805678D01*
X170890426Y-66987958D01*
X170987547Y-67128443D01*
X171152931Y-67256432D01*
X171407284Y-67401222D01*
X171627081Y-67540893D01*
X171743050Y-67670439D01*
X171748354Y-67676364D01*
G37*
G36*
X130886456Y-62365578D02*
G01*
X130967956Y-62456315D01*
X131002716Y-62603517D01*
X130987959Y-62659960D01*
X130935494Y-62712552D01*
X130820451Y-62745217D01*
X130614671Y-62770039D01*
X130441152Y-62794287D01*
X130255598Y-62838874D01*
X130144237Y-62889009D01*
X130055574Y-62989094D01*
X129940152Y-63205502D01*
X129857590Y-63464067D01*
X129825410Y-63719169D01*
X129822428Y-63794483D01*
X129796443Y-63961468D01*
X129752722Y-64061207D01*
X129711066Y-64092903D01*
X129586164Y-64132589D01*
X129545140Y-64130070D01*
X129449360Y-64087361D01*
X129388894Y-63978510D01*
X129357322Y-63786271D01*
X129348225Y-63493398D01*
X129347778Y-63378907D01*
X129340497Y-63167478D01*
X129318627Y-63030208D01*
X129274943Y-62935302D01*
X129202217Y-62850962D01*
X129196486Y-62845340D01*
X129052132Y-62746000D01*
X128909042Y-62704954D01*
X128878122Y-62703345D01*
X128725270Y-62649869D01*
X128615700Y-62544809D01*
X128586823Y-62421117D01*
X128602246Y-62401804D01*
X129505305Y-62401804D01*
X129513193Y-62468480D01*
X129571628Y-62551273D01*
X129680771Y-62690026D01*
X129837671Y-62555066D01*
X129848687Y-62545677D01*
X129973834Y-62449431D01*
X130063338Y-62397184D01*
X130078487Y-62388673D01*
X130088403Y-62312801D01*
X130027908Y-62155760D01*
X129923711Y-61937257D01*
X129693098Y-62174888D01*
X129683919Y-62184348D01*
X129558652Y-62318131D01*
X129505305Y-62401804D01*
X128602246Y-62401804D01*
X128643704Y-62349891D01*
X128778530Y-62247827D01*
X128961574Y-62138031D01*
X129203913Y-61986270D01*
X129398718Y-61789550D01*
X129513831Y-61544058D01*
X129570313Y-61217962D01*
X129590698Y-61061021D01*
X129654023Y-60850181D01*
X129746694Y-60753723D01*
X129865246Y-60772017D01*
X130006216Y-60905431D01*
X130166141Y-61154337D01*
X130256356Y-61340770D01*
X130330860Y-61544862D01*
X130359466Y-61695452D01*
X130375303Y-61800209D01*
X130459163Y-61959716D01*
X130625634Y-62143196D01*
X130824556Y-62312801D01*
X130886456Y-62365578D01*
G37*
G36*
X164797248Y-61827936D02*
G01*
X165074690Y-61857344D01*
X165326103Y-61903138D01*
X165379651Y-61916176D01*
X165890809Y-62087994D01*
X166321046Y-62321882D01*
X166664148Y-62609738D01*
X166913901Y-62943460D01*
X167064090Y-63314946D01*
X167108502Y-63716095D01*
X167040923Y-64138806D01*
X166977203Y-64307274D01*
X166863722Y-64550967D01*
X166718670Y-64830519D01*
X166558453Y-65112808D01*
X166380756Y-65419377D01*
X166239793Y-65690704D01*
X166157388Y-65900007D01*
X166128223Y-66065961D01*
X166146981Y-66207242D01*
X166208345Y-66342525D01*
X166328400Y-66487796D01*
X166551273Y-66649910D01*
X166811521Y-66765391D01*
X167063646Y-66809404D01*
X167093444Y-66810057D01*
X167249340Y-66834642D01*
X167343576Y-66883760D01*
X167353384Y-66918722D01*
X167349266Y-67054901D01*
X167322046Y-67259612D01*
X167277873Y-67503256D01*
X167222893Y-67756234D01*
X167163254Y-67988950D01*
X167105104Y-68171804D01*
X167054588Y-68275198D01*
X167037130Y-68291690D01*
X166899177Y-68339460D01*
X166677857Y-68350435D01*
X166396162Y-68328162D01*
X166077083Y-68276187D01*
X165743612Y-68198060D01*
X165418740Y-68097326D01*
X165125458Y-67977534D01*
X164871389Y-67839923D01*
X164511210Y-67578258D01*
X164221028Y-67281050D01*
X164025160Y-66970555D01*
X163941044Y-66724747D01*
X163902697Y-66315787D01*
X163973248Y-65874140D01*
X164151453Y-65406017D01*
X164436068Y-64917628D01*
X164572322Y-64706597D01*
X164764248Y-64340828D01*
X164856244Y-64035810D01*
X164847857Y-63788324D01*
X164738631Y-63595153D01*
X164528113Y-63453080D01*
X164215847Y-63358885D01*
X164023932Y-63320320D01*
X163860464Y-63281274D01*
X163772786Y-63244969D01*
X163737603Y-63200780D01*
X163731619Y-63138086D01*
X163731678Y-63134697D01*
X163749751Y-62995021D01*
X163793648Y-62791388D01*
X163854732Y-62553807D01*
X163924368Y-62312287D01*
X163993919Y-62096836D01*
X164054750Y-61937464D01*
X164098225Y-61864178D01*
X164134497Y-61848359D01*
X164294578Y-61822409D01*
X164526353Y-61815946D01*
X164797248Y-61827936D01*
G37*
G36*
X172448901Y-62932031D02*
G01*
X172396323Y-63047875D01*
X172281412Y-63141998D01*
X172135599Y-63180832D01*
X172129583Y-63180957D01*
X171988329Y-63225744D01*
X171847395Y-63326840D01*
X171837823Y-63336515D01*
X171765586Y-63425598D01*
X171724344Y-63530607D01*
X171705732Y-63685841D01*
X171701387Y-63925599D01*
X171701276Y-63953068D01*
X171691730Y-64186305D01*
X171669814Y-64379575D01*
X171639809Y-64493408D01*
X171570895Y-64580291D01*
X171456236Y-64618123D01*
X171344245Y-64567136D01*
X171259149Y-64441286D01*
X171225177Y-64254532D01*
X171200348Y-63988828D01*
X171109608Y-63681197D01*
X170966084Y-63440571D01*
X170931894Y-63403391D01*
X170825514Y-63324956D01*
X170677166Y-63277668D01*
X170448361Y-63247148D01*
X170429345Y-63245320D01*
X170229326Y-63221818D01*
X170117811Y-63191490D01*
X170066649Y-63140966D01*
X170047687Y-63056880D01*
X170052786Y-62960218D01*
X170118026Y-62860004D01*
X170181393Y-62811706D01*
X170958030Y-62811706D01*
X170984479Y-62872464D01*
X170990883Y-62874906D01*
X171085851Y-62932770D01*
X171212928Y-63030663D01*
X171374406Y-63166538D01*
X171479945Y-63026621D01*
X171481342Y-63024770D01*
X171536706Y-62941450D01*
X171541551Y-62873431D01*
X171484879Y-62787369D01*
X171355693Y-62649920D01*
X171125901Y-62413135D01*
X171021704Y-62631638D01*
X171005420Y-62666827D01*
X170958030Y-62811706D01*
X170181393Y-62811706D01*
X170269310Y-62744697D01*
X170377820Y-62666366D01*
X170557848Y-62494553D01*
X170659261Y-62330772D01*
X170667185Y-62195556D01*
X170663330Y-62176556D01*
X170684343Y-62052021D01*
X170750128Y-61871332D01*
X170844888Y-61669116D01*
X170952824Y-61479999D01*
X171058140Y-61338609D01*
X171146171Y-61258104D01*
X171270657Y-61211911D01*
X171367651Y-61278051D01*
X171438666Y-61457991D01*
X171485211Y-61753198D01*
X171489933Y-61798259D01*
X171540991Y-62074872D01*
X171637240Y-62277265D01*
X171802076Y-62439851D01*
X172058893Y-62597041D01*
X172209085Y-62683947D01*
X172357768Y-62786336D01*
X172434884Y-62861202D01*
X172437304Y-62873431D01*
X172448901Y-62932031D01*
G37*
G36*
X154960612Y-61863851D02*
G01*
X155127785Y-61873929D01*
X155203123Y-61890843D01*
X155205737Y-61897397D01*
X155219099Y-61993600D01*
X155237427Y-62194214D01*
X155259957Y-62487852D01*
X155285924Y-62863127D01*
X155314562Y-63308650D01*
X155345107Y-63813034D01*
X155376792Y-64364890D01*
X155408854Y-64952831D01*
X155442368Y-65593767D01*
X155473246Y-66212827D01*
X155496910Y-66727380D01*
X155513583Y-67144969D01*
X155523486Y-67473136D01*
X155526842Y-67719425D01*
X155523873Y-67891379D01*
X155514800Y-67996541D01*
X155499847Y-68042453D01*
X155496851Y-68045134D01*
X155405008Y-68074416D01*
X155203078Y-68104072D01*
X154888841Y-68134320D01*
X154460079Y-68165376D01*
X153914574Y-68197458D01*
X153365655Y-68226947D01*
X152913917Y-68250501D01*
X152557377Y-68267721D01*
X152284145Y-68278740D01*
X152082329Y-68283692D01*
X151940040Y-68282713D01*
X151845388Y-68275937D01*
X151786482Y-68263498D01*
X151751432Y-68245529D01*
X151728349Y-68222167D01*
X151720756Y-68207026D01*
X151695319Y-68089971D01*
X151669199Y-67885424D01*
X151645069Y-67617150D01*
X151625604Y-67308910D01*
X151619130Y-67177441D01*
X151607056Y-66875825D01*
X151605136Y-66668782D01*
X151614261Y-66538497D01*
X151635322Y-66467158D01*
X151669211Y-66436950D01*
X151691755Y-66431548D01*
X151820945Y-66415489D01*
X152035879Y-66397067D01*
X152312983Y-66378157D01*
X152628681Y-66360635D01*
X152769447Y-66353200D01*
X153061101Y-66334589D01*
X153298145Y-66315051D01*
X153459157Y-66296496D01*
X153522717Y-66280838D01*
X153524576Y-66230429D01*
X153520975Y-66073027D01*
X153511769Y-65822471D01*
X153497554Y-65492510D01*
X153478928Y-65096895D01*
X153456487Y-64649375D01*
X153430828Y-64163700D01*
X153408850Y-63746449D01*
X153386256Y-63289488D01*
X153367653Y-62881169D01*
X153353604Y-62535518D01*
X153344672Y-62266562D01*
X153341423Y-62088327D01*
X153344419Y-62014840D01*
X153360291Y-61995732D01*
X153465197Y-61947202D01*
X153628155Y-61911287D01*
X153689345Y-61903773D01*
X153911926Y-61884912D01*
X154177262Y-61871140D01*
X154458433Y-61862806D01*
X154728522Y-61860260D01*
X154960612Y-61863851D01*
G37*
G36*
X141106546Y-61870083D02*
G01*
X141478146Y-61881959D01*
X141877083Y-61898816D01*
X142285213Y-61919725D01*
X142684390Y-61943760D01*
X143056468Y-61969992D01*
X143383300Y-61997496D01*
X143646740Y-62025342D01*
X143828643Y-62052604D01*
X143910863Y-62078355D01*
X143926257Y-62107147D01*
X143938882Y-62175197D01*
X143946237Y-62289647D01*
X143948085Y-62459540D01*
X143944189Y-62693921D01*
X143934311Y-63001834D01*
X143918213Y-63392324D01*
X143895658Y-63874434D01*
X143866408Y-64457209D01*
X143830227Y-65149693D01*
X143813447Y-65462487D01*
X143774882Y-66148237D01*
X143738630Y-66745636D01*
X143705065Y-67249597D01*
X143674558Y-67655031D01*
X143647482Y-67956848D01*
X143624207Y-68149960D01*
X143605107Y-68229278D01*
X143578780Y-68252506D01*
X143485627Y-68282052D01*
X143320707Y-68289076D01*
X143061153Y-68275522D01*
X143023855Y-68272843D01*
X142794726Y-68257866D01*
X142479008Y-68238808D01*
X142102961Y-68217186D01*
X141692846Y-68194517D01*
X141274923Y-68172318D01*
X140967020Y-68155226D01*
X140521755Y-68124958D01*
X140193012Y-68094138D01*
X139981606Y-68062849D01*
X139888352Y-68031173D01*
X139868581Y-68004849D01*
X139844443Y-67920806D01*
X139835192Y-67774437D01*
X139840142Y-67547093D01*
X139858610Y-67220123D01*
X139906773Y-66482237D01*
X140932886Y-66500096D01*
X141958998Y-66517955D01*
X141958998Y-66159946D01*
X141958998Y-65801938D01*
X141260052Y-65785179D01*
X140561106Y-65768420D01*
X140518600Y-65087901D01*
X140513443Y-65000586D01*
X140501573Y-64660358D01*
X140510184Y-64437232D01*
X140539274Y-64331254D01*
X140575467Y-64308055D01*
X140717662Y-64275305D01*
X140965436Y-64252368D01*
X141325339Y-64238471D01*
X142048225Y-64221816D01*
X142065894Y-63918486D01*
X142083563Y-63615156D01*
X141625655Y-63576448D01*
X141359321Y-63557848D01*
X141052379Y-63543309D01*
X140793942Y-63537741D01*
X140617585Y-63532196D01*
X140411216Y-63511888D01*
X140272998Y-63481798D01*
X140125858Y-63425856D01*
X140157153Y-62693625D01*
X140172963Y-62419395D01*
X140197232Y-62161691D01*
X140225762Y-61978302D01*
X140255807Y-61891551D01*
X140256456Y-61890930D01*
X140337241Y-61873611D01*
X140517948Y-61864982D01*
X140780432Y-61864115D01*
X141106546Y-61870083D01*
G37*
G36*
X129686443Y-65149853D02*
G01*
X129705134Y-65261742D01*
X129704523Y-65289849D01*
X129678691Y-65397160D01*
X129599121Y-65461391D01*
X129444305Y-65492574D01*
X129192738Y-65500739D01*
X129146948Y-65501345D01*
X128774549Y-65558872D01*
X128470875Y-65705886D01*
X128244730Y-65936367D01*
X128104919Y-66244298D01*
X128097161Y-66279113D01*
X128074745Y-66456449D01*
X128056597Y-66714495D01*
X128044414Y-67024242D01*
X128039892Y-67356682D01*
X128039048Y-67617720D01*
X128034456Y-67887950D01*
X128024018Y-68071468D01*
X128005671Y-68186950D01*
X127977351Y-68253076D01*
X127936998Y-68288523D01*
X127813318Y-68326043D01*
X127710116Y-68270793D01*
X127638098Y-68109149D01*
X127593373Y-67835984D01*
X127550886Y-67453780D01*
X127471972Y-66957396D01*
X127369765Y-66558784D01*
X127236733Y-66245412D01*
X127065343Y-66004748D01*
X126848064Y-65824259D01*
X126577364Y-65691414D01*
X126245710Y-65593680D01*
X125974404Y-65527938D01*
X125758159Y-65464893D01*
X125625751Y-65407239D01*
X125559369Y-65346943D01*
X125541199Y-65275972D01*
X125554285Y-65225055D01*
X126738436Y-65225055D01*
X126771765Y-65245701D01*
X126884839Y-65312123D01*
X127045698Y-65404903D01*
X127141248Y-65466230D01*
X127343562Y-65631040D01*
X127499762Y-65801480D01*
X127668765Y-66034782D01*
X127738914Y-65865426D01*
X127836695Y-65700688D01*
X128023027Y-65491671D01*
X128248293Y-65304123D01*
X128473781Y-65174443D01*
X128699805Y-65080278D01*
X128375898Y-64816425D01*
X128147742Y-64595609D01*
X127934463Y-64303218D01*
X127793050Y-64000934D01*
X127741225Y-63719387D01*
X127741014Y-63703465D01*
X127723957Y-63538752D01*
X127688244Y-63425783D01*
X127663810Y-63393928D01*
X127633608Y-63392408D01*
X127601984Y-63457066D01*
X127561725Y-63604748D01*
X127505620Y-63852299D01*
X127466432Y-64007302D01*
X127264273Y-64498400D01*
X126955894Y-64936216D01*
X126847406Y-65064252D01*
X126762515Y-65175822D01*
X126738436Y-65225055D01*
X125554285Y-65225055D01*
X125574282Y-65147248D01*
X125700957Y-65054999D01*
X125926512Y-65024860D01*
X126009328Y-65019643D01*
X126280576Y-64928898D01*
X126533914Y-64733927D01*
X126759893Y-64445990D01*
X126949064Y-64076343D01*
X127091976Y-63636246D01*
X127124082Y-63509927D01*
X127267455Y-63016135D01*
X127452303Y-62481886D01*
X127480644Y-62429240D01*
X127595961Y-62355436D01*
X127743947Y-62365659D01*
X127886041Y-62461703D01*
X127909888Y-62494752D01*
X127981201Y-62662283D01*
X128053857Y-62924152D01*
X128123340Y-63262295D01*
X128185138Y-63658648D01*
X128194316Y-63714241D01*
X128254927Y-63934733D01*
X128337242Y-64118712D01*
X128456446Y-64263935D01*
X128657769Y-64447840D01*
X128907741Y-64641051D01*
X129176832Y-64820830D01*
X129435512Y-64964436D01*
X129454619Y-64973758D01*
X129612082Y-65063941D01*
X129626222Y-65080278D01*
X129686443Y-65149853D01*
G37*
G36*
X150739335Y-63787206D02*
G01*
X150716108Y-64274412D01*
X150690267Y-64783650D01*
X150662558Y-65301007D01*
X150633729Y-65812569D01*
X150604523Y-66304423D01*
X150575689Y-66762657D01*
X150547971Y-67173357D01*
X150522117Y-67522610D01*
X150498872Y-67796504D01*
X150478982Y-67981124D01*
X150463194Y-68062559D01*
X150370455Y-68151712D01*
X150165800Y-68243556D01*
X149870473Y-68318187D01*
X149825511Y-68325060D01*
X149614411Y-68339279D01*
X149322332Y-68342728D01*
X148977702Y-68336694D01*
X148608951Y-68322462D01*
X148244510Y-68301316D01*
X147912808Y-68274544D01*
X147642275Y-68243429D01*
X147461340Y-68209257D01*
X146874218Y-67996906D01*
X146328830Y-67698083D01*
X145852862Y-67327882D01*
X145457810Y-66896923D01*
X145155171Y-66415828D01*
X144956443Y-65895218D01*
X144929716Y-65781538D01*
X144874916Y-65321421D01*
X144879476Y-64990912D01*
X146926403Y-64990912D01*
X146931089Y-65252265D01*
X146950522Y-65464410D01*
X146990849Y-65627115D01*
X147058193Y-65776900D01*
X147120706Y-65880902D01*
X147362796Y-66162957D01*
X147666166Y-66394855D01*
X147990030Y-66543062D01*
X148087019Y-66569232D01*
X148305597Y-66613464D01*
X148480682Y-66630949D01*
X148594216Y-66623350D01*
X148670149Y-66571401D01*
X148704976Y-66437624D01*
X148710816Y-66393068D01*
X148727306Y-66213746D01*
X148745113Y-65957779D01*
X148763420Y-65644709D01*
X148781416Y-65294078D01*
X148798286Y-64925428D01*
X148813215Y-64558301D01*
X148825390Y-64212238D01*
X148833997Y-63906781D01*
X148838223Y-63661472D01*
X148837252Y-63495854D01*
X148830272Y-63429467D01*
X148823475Y-63425313D01*
X148728332Y-63407669D01*
X148552775Y-63395274D01*
X148328635Y-63390594D01*
X148309379Y-63390610D01*
X148063965Y-63396867D01*
X147889656Y-63421776D01*
X147741685Y-63476011D01*
X147575290Y-63570247D01*
X147421677Y-63678035D01*
X147253453Y-63854276D01*
X147105342Y-64100622D01*
X147061509Y-64188364D01*
X146989568Y-64357486D01*
X146948687Y-64519670D01*
X146930441Y-64716838D01*
X146926403Y-64990912D01*
X144879476Y-64990912D01*
X144881980Y-64809373D01*
X144946967Y-64281746D01*
X145065939Y-63774892D01*
X145234956Y-63325163D01*
X145403139Y-63036341D01*
X145726361Y-62663765D01*
X146136551Y-62340105D01*
X146616888Y-62077963D01*
X147150551Y-61889941D01*
X147222900Y-61872618D01*
X147568582Y-61821144D01*
X147977088Y-61797012D01*
X148406127Y-61800243D01*
X148813413Y-61830860D01*
X149156656Y-61888886D01*
X149239978Y-61907091D01*
X149511113Y-61952635D01*
X149827761Y-61992128D01*
X150137372Y-62018620D01*
X150304732Y-62030775D01*
X150535992Y-62054650D01*
X150704668Y-62081061D01*
X150782623Y-62106190D01*
X150790150Y-62168601D01*
X150791183Y-62336955D01*
X150785872Y-62596905D01*
X150774963Y-62934539D01*
X150759202Y-63335944D01*
X150744870Y-63661472D01*
X150739335Y-63787206D01*
G37*
G36*
X138943500Y-65349134D02*
G01*
X138963759Y-65861926D01*
X138981817Y-66352416D01*
X138997107Y-66806817D01*
X139009061Y-67211343D01*
X139017112Y-67552207D01*
X139020694Y-67815621D01*
X139019239Y-67987800D01*
X139012180Y-68054957D01*
X138993838Y-68064039D01*
X138874732Y-68088120D01*
X138668673Y-68112710D01*
X138398382Y-68135385D01*
X138086582Y-68153718D01*
X137218740Y-68194724D01*
X137179736Y-67910155D01*
X137165458Y-67781020D01*
X137147466Y-67519437D01*
X137140214Y-67262108D01*
X137137592Y-67113885D01*
X137123624Y-66830306D01*
X137101741Y-66582582D01*
X137063786Y-66266533D01*
X136834577Y-66300029D01*
X136823150Y-66301700D01*
X136595833Y-66334968D01*
X136369238Y-66368191D01*
X136255542Y-66391819D01*
X136117501Y-66467764D01*
X136001110Y-66621001D01*
X135983744Y-66649403D01*
X135887499Y-66803226D01*
X135747176Y-67024364D01*
X135578808Y-67287629D01*
X135398427Y-67567835D01*
X135343001Y-67653148D01*
X135144549Y-67947131D01*
X134994366Y-68146796D01*
X134885744Y-68260481D01*
X134811973Y-68296523D01*
X134729984Y-68277263D01*
X134559579Y-68215130D01*
X134332245Y-68120281D01*
X134074439Y-68003238D01*
X133909862Y-67924455D01*
X133685085Y-67809025D01*
X133544965Y-67721262D01*
X133472996Y-67650043D01*
X133452675Y-67584247D01*
X133469448Y-67487283D01*
X133525056Y-67295966D01*
X133610126Y-67045081D01*
X133714839Y-66761128D01*
X133829377Y-66470604D01*
X133943921Y-66200009D01*
X134048652Y-65975840D01*
X134213460Y-65647896D01*
X134070566Y-65470219D01*
X133948772Y-65291013D01*
X133783642Y-64913637D01*
X133684496Y-64485659D01*
X133668292Y-64240605D01*
X135602178Y-64240605D01*
X135672044Y-64505970D01*
X135820644Y-64728843D01*
X136039655Y-64879728D01*
X136111426Y-64906358D01*
X136452193Y-64956791D01*
X136825456Y-64899597D01*
X137015802Y-64844549D01*
X136980110Y-64116789D01*
X136963121Y-63848532D01*
X136937829Y-63595633D01*
X136908900Y-63421139D01*
X136878992Y-63345326D01*
X136877680Y-63344462D01*
X136737468Y-63305854D01*
X136530254Y-63307578D01*
X136298858Y-63345783D01*
X136086105Y-63416619D01*
X136060343Y-63428932D01*
X135860261Y-63564063D01*
X135714548Y-63727608D01*
X135619370Y-63962243D01*
X135602178Y-64240605D01*
X133668292Y-64240605D01*
X133655044Y-64040256D01*
X133698995Y-63610609D01*
X133820061Y-63229899D01*
X134076536Y-62803224D01*
X134440099Y-62415990D01*
X134889503Y-62102479D01*
X135415672Y-61870423D01*
X135586483Y-61816944D01*
X135752900Y-61780120D01*
X135929319Y-61764271D01*
X136151863Y-61766377D01*
X136456656Y-61783419D01*
X136743290Y-61797897D01*
X137133389Y-61809564D01*
X137543530Y-61815219D01*
X137921287Y-61813776D01*
X138731585Y-61801167D01*
X138765602Y-62059735D01*
X138770217Y-62098359D01*
X138787675Y-62293239D01*
X138807467Y-62576111D01*
X138829027Y-62933190D01*
X138851789Y-63350688D01*
X138875183Y-63814818D01*
X138898645Y-64311794D01*
X138921606Y-64827828D01*
X138922308Y-64844549D01*
X138943500Y-65349134D01*
G37*
G36*
X175508412Y-65751850D02*
G01*
X175495572Y-65813066D01*
X175437189Y-65874704D01*
X175315080Y-65932441D01*
X175111410Y-65994340D01*
X174808348Y-66068469D01*
X174512837Y-66152958D01*
X174212913Y-66292896D01*
X173976254Y-66484550D01*
X173793997Y-66741070D01*
X173657276Y-67075600D01*
X173557229Y-67501288D01*
X173484993Y-68031281D01*
X173465022Y-68208078D01*
X173422517Y-68490130D01*
X173376368Y-68668973D01*
X173324217Y-68755225D01*
X173255564Y-68791279D01*
X173120804Y-68768004D01*
X173079000Y-68736573D01*
X173048165Y-68679994D01*
X173028075Y-68580367D01*
X173016475Y-68418714D01*
X173011108Y-68176059D01*
X173009720Y-67833423D01*
X173009208Y-67726087D01*
X173002052Y-67397629D01*
X172987786Y-67101167D01*
X172968102Y-66865688D01*
X172944693Y-66720177D01*
X172933556Y-66681872D01*
X172783596Y-66382350D01*
X172548294Y-66160954D01*
X172236451Y-66023704D01*
X171856874Y-65976617D01*
X171796614Y-65976332D01*
X171566544Y-65964283D01*
X171428836Y-65927169D01*
X171361983Y-65854959D01*
X171344478Y-65737620D01*
X171344595Y-65725744D01*
X171367157Y-65617418D01*
X171447848Y-65532358D01*
X171454732Y-65528547D01*
X172387274Y-65528547D01*
X172449903Y-65586072D01*
X172585790Y-65653243D01*
X172641419Y-65679549D01*
X172809214Y-65790924D01*
X172986712Y-65942210D01*
X173146918Y-66106667D01*
X173262837Y-66257555D01*
X173307476Y-66368132D01*
X173308195Y-66390217D01*
X173341236Y-66464826D01*
X173414723Y-66437568D01*
X173516474Y-66311731D01*
X173560910Y-66253620D01*
X173713743Y-66102727D01*
X173910874Y-65942724D01*
X174110974Y-65805739D01*
X174272708Y-65723900D01*
X174290560Y-65707249D01*
X174261398Y-65620026D01*
X174139238Y-65465668D01*
X173950854Y-65239321D01*
X173792022Y-64997182D01*
X173666215Y-64728120D01*
X173559336Y-64401573D01*
X173457293Y-63986979D01*
X173445933Y-63944070D01*
X173402384Y-63873721D01*
X173357855Y-63902050D01*
X173322979Y-64014189D01*
X173308387Y-64195265D01*
X173263618Y-64449893D01*
X173136997Y-64739829D01*
X172949428Y-65017566D01*
X172721860Y-65245591D01*
X172598275Y-65343742D01*
X172464559Y-65450500D01*
X172391492Y-65509578D01*
X172387274Y-65528547D01*
X171454732Y-65528547D01*
X171614100Y-65440314D01*
X171865128Y-65301310D01*
X172132117Y-65123871D01*
X172381511Y-64932597D01*
X172583847Y-64750115D01*
X172709659Y-64599048D01*
X172743886Y-64532774D01*
X172816285Y-64329483D01*
X172863855Y-64109242D01*
X172910178Y-63796370D01*
X172983694Y-63418839D01*
X173065802Y-63143123D01*
X173160854Y-62958927D01*
X173273202Y-62855959D01*
X173407198Y-62823924D01*
X173450094Y-62822345D01*
X173488512Y-62824443D01*
X173522688Y-62842415D01*
X173557523Y-62888492D01*
X173597919Y-62974905D01*
X173648775Y-63113883D01*
X173714994Y-63317655D01*
X173801477Y-63598453D01*
X173913123Y-63968506D01*
X174054835Y-64440044D01*
X174157573Y-64692872D01*
X174330299Y-64981253D01*
X174535247Y-65231888D01*
X174744288Y-65405392D01*
X174759689Y-65414108D01*
X174935781Y-65475572D01*
X175133914Y-65500739D01*
X175316176Y-65520344D01*
X175460707Y-65603078D01*
X175494110Y-65707249D01*
X175508412Y-65751850D01*
G37*
%TD*%
M02*
