%TF.GenerationSoftware,KiCad,Pcbnew,9.0.7*%
%TF.CreationDate,2026-09-23T22:32:31+02:00*%
%TF.ProjectId,SolderPCB,536f6c64-6572-4504-9342-2e6b69636164,rev?*%
%TF.SameCoordinates,Original*%
%TF.FileFunction,Profile,NP*%
%FSLAX46Y46*%
G04 Gerber Fmt 4.6, Leading zero omitted, Abs format (unit mm)*
G04 Created by KiCad (PCBNEW 9.0.7) date 2026-09-23 22:32:31*
%MOMM*%
%LPD*%
G01*
G04 APERTURE LIST*
%TA.AperFunction,Profile*%
%ADD10C,0.100000*%
%TD*%
G04 APERTURE END LIST*
D10*
X151779006Y-42500000D02*
X152118471Y-42541839D01*
X152433462Y-42604025D01*
X152721245Y-42684350D01*
X152979087Y-42780603D01*
X153204258Y-42890577D01*
X153303737Y-42950019D01*
X153394024Y-43012062D01*
X153476578Y-43077274D01*
X153553470Y-43146069D01*
X153625269Y-43217939D01*
X153692545Y-43292377D01*
X153815805Y-43446933D01*
X153927809Y-43605679D01*
X154136283Y-43919526D01*
X154241869Y-44066515D01*
X154296993Y-44135752D01*
X154354431Y-44201474D01*
X154414753Y-44263175D01*
X154478529Y-44320348D01*
X154546328Y-44372486D01*
X154618720Y-44419082D01*
X154696275Y-44459629D01*
X154779562Y-44493619D01*
X154869153Y-44520548D01*
X154965615Y-44539906D01*
X155069519Y-44551188D01*
X155181435Y-44553887D01*
X155301933Y-44547495D01*
X155431581Y-44531505D01*
X155570951Y-44505412D01*
X155720612Y-44468707D01*
X155881134Y-44420884D01*
X156053086Y-44361436D01*
X156203733Y-44293148D01*
X156372570Y-44196125D01*
X156763188Y-43938670D01*
X157221690Y-43634665D01*
X157475382Y-43479452D01*
X157744826Y-43329699D01*
X158029616Y-43191103D01*
X158329346Y-43069364D01*
X158643610Y-42970181D01*
X158806065Y-42930828D01*
X158972001Y-42899252D01*
X159141367Y-42876164D01*
X159314112Y-42862277D01*
X159490187Y-42858303D01*
X159669539Y-42864954D01*
X159852118Y-42882944D01*
X160037874Y-42912983D01*
X160226755Y-42955785D01*
X160418711Y-43012062D01*
X160835556Y-43125775D01*
X161307107Y-43217466D01*
X161825748Y-43292473D01*
X162383863Y-43356135D01*
X164858750Y-43604104D01*
X165500000Y-43691119D01*
X166135029Y-43798821D01*
X166756222Y-43932548D01*
X167355962Y-44097639D01*
X167926635Y-44299432D01*
X168198691Y-44415760D01*
X168460624Y-44543266D01*
X168711482Y-44682617D01*
X168950313Y-44834480D01*
X169176166Y-44999522D01*
X169388087Y-45178411D01*
X169790010Y-45564328D01*
X170179433Y-45971162D01*
X170934038Y-46806926D01*
X171305846Y-47215529D01*
X171678410Y-47604394D01*
X172055044Y-47963357D01*
X172245923Y-48128450D01*
X172439061Y-48282255D01*
X172634874Y-48423504D01*
X172833776Y-48550924D01*
X173036180Y-48663247D01*
X173242501Y-48759200D01*
X173453153Y-48837515D01*
X173668550Y-48896920D01*
X173889108Y-48936144D01*
X174115238Y-48953919D01*
X174347357Y-48948972D01*
X174585879Y-48920034D01*
X174831216Y-48865833D01*
X175083784Y-48785101D01*
X175343998Y-48676565D01*
X175612270Y-48538956D01*
X175889015Y-48371003D01*
X176174649Y-48171436D01*
X176475342Y-47970092D01*
X176795762Y-47796766D01*
X177134059Y-47650116D01*
X177488386Y-47528798D01*
X177856894Y-47431471D01*
X178237736Y-47356790D01*
X178629062Y-47303414D01*
X179029026Y-47269999D01*
X179435778Y-47255202D01*
X179847471Y-47257682D01*
X180262256Y-47276095D01*
X180678286Y-47309098D01*
X181506686Y-47413503D01*
X182317885Y-47560155D01*
X183097098Y-47738313D01*
X183829540Y-47937232D01*
X184500425Y-48146172D01*
X185094969Y-48354390D01*
X185598386Y-48551142D01*
X185995890Y-48725687D01*
X186272697Y-48867283D01*
X186414021Y-48965186D01*
X186671755Y-49242911D01*
X186909941Y-49510825D01*
X187129726Y-49769351D01*
X187332260Y-50018909D01*
X187518690Y-50259922D01*
X187690165Y-50492811D01*
X187847832Y-50717996D01*
X187992841Y-50935900D01*
X188249473Y-51351550D01*
X188469246Y-51743132D01*
X188661347Y-52114018D01*
X188834960Y-52467580D01*
X189163467Y-53136219D01*
X189336732Y-53458040D01*
X189528251Y-53776024D01*
X189633727Y-53934631D01*
X189747210Y-54093543D01*
X189869851Y-54253182D01*
X190002796Y-54413969D01*
X190147193Y-54576326D01*
X190304192Y-54740673D01*
X190474940Y-54907434D01*
X190660585Y-55077029D01*
X190858257Y-55241966D01*
X191063807Y-55394916D01*
X191276461Y-55536547D01*
X191495445Y-55667527D01*
X191719987Y-55788523D01*
X191949313Y-55900201D01*
X192419225Y-56098275D01*
X192898995Y-56267089D01*
X193382440Y-56411981D01*
X193863372Y-56538289D01*
X194335607Y-56651353D01*
X195229243Y-56859098D01*
X195638273Y-56964458D01*
X196013863Y-57077926D01*
X196349829Y-57204842D01*
X196501020Y-57275011D01*
X196639985Y-57350544D01*
X196765952Y-57432108D01*
X196878146Y-57520371D01*
X196975794Y-57615999D01*
X197058125Y-57719661D01*
X197089006Y-57764428D01*
X197390379Y-58206765D01*
X197694526Y-58686372D01*
X197843502Y-58944543D01*
X197988206Y-59217301D01*
X198126984Y-59506402D01*
X198258180Y-59813603D01*
X198380139Y-60140660D01*
X198491207Y-60489331D01*
X198589728Y-60861371D01*
X198674047Y-61258536D01*
X198742510Y-61682585D01*
X198793460Y-62135272D01*
X198825245Y-62618355D01*
X198836207Y-63133590D01*
X199091129Y-63664149D01*
X199362087Y-64147595D01*
X199649487Y-64586661D01*
X199953736Y-64984080D01*
X200275242Y-65342585D01*
X200614411Y-65664907D01*
X200971650Y-65953778D01*
X201347365Y-66211932D01*
X201741964Y-66442101D01*
X202155853Y-66647017D01*
X202589439Y-66829413D01*
X203043129Y-66992020D01*
X203517330Y-67137572D01*
X204012449Y-67268800D01*
X204528892Y-67388437D01*
X205067067Y-67499216D01*
X205368230Y-67550715D01*
X205675333Y-67591728D01*
X206297330Y-67658438D01*
X206607209Y-67692206D01*
X206913000Y-67731631D01*
X207212197Y-67780749D01*
X207502292Y-67843594D01*
X207643142Y-67881426D01*
X207780778Y-67924203D01*
X207914884Y-67972430D01*
X208045148Y-68026611D01*
X208171257Y-68087251D01*
X208292897Y-68154854D01*
X208409754Y-68229925D01*
X208521516Y-68312967D01*
X208627869Y-68404487D01*
X208728499Y-68504987D01*
X208823094Y-68614973D01*
X208911340Y-68734949D01*
X208992923Y-68865420D01*
X209067531Y-69006889D01*
X209134850Y-69159862D01*
X209194566Y-69324842D01*
X209264358Y-69550076D01*
X209324800Y-69771870D01*
X209374838Y-69991542D01*
X209413419Y-70210410D01*
X209439489Y-70429791D01*
X209451994Y-70651004D01*
X209449882Y-70875368D01*
X209432098Y-71104200D01*
X209397590Y-71338819D01*
X209345304Y-71580543D01*
X209274186Y-71830690D01*
X209183184Y-72090577D01*
X209071242Y-72361524D01*
X208937309Y-72644849D01*
X208780331Y-72941869D01*
X208599253Y-73253903D01*
X208529462Y-73386012D01*
X208474451Y-73525989D01*
X208433594Y-73673282D01*
X208406261Y-73827341D01*
X208391826Y-73987614D01*
X208389661Y-74153552D01*
X208399137Y-74324602D01*
X208419628Y-74500215D01*
X208450506Y-74679839D01*
X208491142Y-74862923D01*
X208599181Y-75237271D01*
X208738723Y-75618850D01*
X208904745Y-76003255D01*
X209092227Y-76386078D01*
X209296147Y-76762914D01*
X209511482Y-77129355D01*
X209733211Y-77480994D01*
X209956312Y-77813425D01*
X210175764Y-78122242D01*
X210386544Y-78403037D01*
X210583632Y-78651404D01*
X210710034Y-78927084D01*
X210838579Y-79245414D01*
X210965196Y-79602346D01*
X211085814Y-79993833D01*
X211196364Y-80415831D01*
X211292774Y-80864292D01*
X211370973Y-81335170D01*
X211426891Y-81824419D01*
X211456457Y-82327993D01*
X211455600Y-82841845D01*
X211420251Y-83361929D01*
X211346337Y-83884199D01*
X211229789Y-84404608D01*
X211154255Y-84662851D01*
X211066536Y-84919111D01*
X210966123Y-85172883D01*
X210852507Y-85423661D01*
X210725180Y-85670939D01*
X210583632Y-85914211D01*
X210398777Y-86206320D01*
X210216357Y-86480494D01*
X210036480Y-86737634D01*
X209859256Y-86978642D01*
X209684794Y-87204418D01*
X209513202Y-87415863D01*
X209344589Y-87613879D01*
X209179065Y-87799367D01*
X209016738Y-87973227D01*
X208857718Y-88136362D01*
X208550033Y-88434057D01*
X208256883Y-88699661D01*
X207979138Y-88940383D01*
X207473355Y-89376015D01*
X207247061Y-89585344D01*
X207140945Y-89691040D01*
X207039661Y-89798626D01*
X206943319Y-89909002D01*
X206852028Y-90023070D01*
X206765896Y-90141730D01*
X206685032Y-90265885D01*
X206609546Y-90396434D01*
X206539547Y-90534280D01*
X206475143Y-90680323D01*
X206416444Y-90835464D01*
X206378882Y-90956117D01*
X206349045Y-91078977D01*
X206326197Y-91203741D01*
X206309598Y-91330106D01*
X206298511Y-91457769D01*
X206292197Y-91586427D01*
X206290933Y-91845514D01*
X206299902Y-92104947D01*
X206313196Y-92362300D01*
X206324908Y-92615150D01*
X206329133Y-92861073D01*
X206319962Y-93097646D01*
X206308509Y-93211669D01*
X206291491Y-93322446D01*
X206268172Y-93429673D01*
X206237813Y-93533048D01*
X206199674Y-93632268D01*
X206153019Y-93727029D01*
X206097109Y-93817030D01*
X206031205Y-93901966D01*
X205954570Y-93981536D01*
X205866464Y-94055435D01*
X205766149Y-94123361D01*
X205652888Y-94185012D01*
X205525941Y-94240084D01*
X205384571Y-94288274D01*
X205239764Y-94337438D01*
X205102340Y-94395089D01*
X204971310Y-94460414D01*
X204845688Y-94532600D01*
X204606710Y-94694295D01*
X204377499Y-94873664D01*
X203916752Y-95259377D01*
X203669403Y-95452699D01*
X203400195Y-95637649D01*
X203101221Y-95807717D01*
X202938101Y-95885134D01*
X202764575Y-95956390D01*
X202579655Y-96020669D01*
X202382351Y-96077158D01*
X202171676Y-96125042D01*
X201946642Y-96163509D01*
X201706259Y-96191744D01*
X201449541Y-96208933D01*
X201175498Y-96214262D01*
X200883142Y-96206917D01*
X200571484Y-96186085D01*
X200239538Y-96150951D01*
X199886313Y-96100702D01*
X199510823Y-96034524D01*
X199208889Y-95981850D01*
X198921669Y-95942149D01*
X198648391Y-95914302D01*
X198388285Y-95897191D01*
X198140577Y-95889700D01*
X197904496Y-95890712D01*
X197679271Y-95899108D01*
X197464130Y-95913771D01*
X197061013Y-95957431D01*
X196688973Y-96012752D01*
X196013427Y-96122622D01*
X195697576Y-96159293D01*
X195542429Y-96169152D01*
X195388107Y-96171871D01*
X195233838Y-96166330D01*
X195078849Y-96151414D01*
X194922370Y-96126006D01*
X194763628Y-96088986D01*
X194601852Y-96039239D01*
X194436271Y-95975647D01*
X194266111Y-95897093D01*
X194090603Y-95802458D01*
X193908974Y-95690627D01*
X193720453Y-95560480D01*
X193524268Y-95410902D01*
X193319647Y-95240775D01*
X193075644Y-95190675D01*
X192841867Y-95151585D01*
X192617807Y-95122886D01*
X192402951Y-95103962D01*
X192196788Y-95094194D01*
X191998808Y-95092964D01*
X191808500Y-95099656D01*
X191625352Y-95113651D01*
X191448853Y-95134331D01*
X191278492Y-95161080D01*
X191113759Y-95193279D01*
X190954141Y-95230310D01*
X190648209Y-95316400D01*
X190356608Y-95414407D01*
X189800044Y-95626409D01*
X189526904Y-95730521D01*
X189251739Y-95826785D01*
X188970462Y-95910258D01*
X188826253Y-95945654D01*
X188678983Y-95976000D01*
X188528140Y-96000678D01*
X188373214Y-96019069D01*
X188213693Y-96030557D01*
X188049066Y-96034524D01*
X187564803Y-96043945D01*
X187145944Y-96067879D01*
X186457227Y-96133292D01*
X186163766Y-96161778D01*
X185888502Y-96178787D01*
X185619633Y-96177822D01*
X185345357Y-96152386D01*
X185053873Y-96095982D01*
X184733379Y-96002112D01*
X184372073Y-95864279D01*
X183958154Y-95675986D01*
X183479821Y-95430737D01*
X182925271Y-95122033D01*
X182282704Y-94743378D01*
X181540316Y-94288274D01*
X181241380Y-94161088D01*
X180974243Y-94039766D01*
X180736846Y-93923991D01*
X180527131Y-93813444D01*
X180343036Y-93707807D01*
X180182504Y-93606763D01*
X180043473Y-93509994D01*
X179923885Y-93417180D01*
X179821681Y-93328006D01*
X179734800Y-93242152D01*
X179661184Y-93159300D01*
X179598772Y-93079133D01*
X179499325Y-92925580D01*
X179419982Y-92778950D01*
X179344268Y-92636698D01*
X179255706Y-92496280D01*
X179201459Y-92425964D01*
X179137822Y-92355153D01*
X179062734Y-92283528D01*
X178974137Y-92210772D01*
X178869971Y-92136567D01*
X178748177Y-92060594D01*
X178606694Y-91982536D01*
X178443465Y-91902074D01*
X178256428Y-91818892D01*
X178043525Y-91732670D01*
X177802696Y-91643090D01*
X177531881Y-91549836D01*
X177094722Y-91416291D01*
X176896552Y-91365431D01*
X176710855Y-91325118D01*
X176536782Y-91295303D01*
X176373483Y-91275942D01*
X176220109Y-91266986D01*
X176075811Y-91268389D01*
X175939738Y-91280105D01*
X175811042Y-91302086D01*
X175688872Y-91334286D01*
X175572380Y-91376658D01*
X175460716Y-91429156D01*
X175353031Y-91491733D01*
X175248474Y-91564341D01*
X175146197Y-91646934D01*
X175045349Y-91739466D01*
X174945082Y-91841890D01*
X174742892Y-92076225D01*
X174532829Y-92349566D01*
X174308097Y-92661540D01*
X173787446Y-93399887D01*
X173477934Y-93825512D01*
X173126570Y-94288274D01*
X172974960Y-94655483D01*
X172832711Y-95058879D01*
X172699879Y-95492943D01*
X172576524Y-95952156D01*
X172462703Y-96431000D01*
X172358475Y-96923957D01*
X172179029Y-97930131D01*
X172038650Y-98926532D01*
X171937804Y-99869008D01*
X171876955Y-100713413D01*
X171856569Y-101415595D01*
X171761744Y-102822071D01*
X171708538Y-103865966D01*
X171699540Y-104444389D01*
X171709537Y-105049534D01*
X171743972Y-105673202D01*
X171808289Y-106307198D01*
X171907932Y-106943325D01*
X172048345Y-107573386D01*
X172234972Y-108189185D01*
X172347316Y-108489174D01*
X172473256Y-108782523D01*
X172613470Y-109068209D01*
X172768640Y-109345205D01*
X172939447Y-109612489D01*
X173126570Y-109869034D01*
X173318554Y-110112495D01*
X173500375Y-110337413D01*
X173672424Y-110544615D01*
X173835094Y-110734930D01*
X173988778Y-110909186D01*
X174133866Y-111068209D01*
X174270752Y-111212828D01*
X174399829Y-111343870D01*
X174521487Y-111462163D01*
X174636120Y-111568535D01*
X174744120Y-111663812D01*
X174845880Y-111748824D01*
X174941790Y-111824397D01*
X175032245Y-111891360D01*
X175117636Y-111950539D01*
X175198355Y-112002763D01*
X175274795Y-112048859D01*
X175347348Y-112089655D01*
X175482362Y-112158658D01*
X175723008Y-112269479D01*
X175834917Y-112324541D01*
X175890141Y-112354881D01*
X175945401Y-112388198D01*
X176001090Y-112425319D01*
X176057599Y-112467072D01*
X176115321Y-112514285D01*
X176174649Y-112567785D01*
X176448920Y-112809829D01*
X176735340Y-113030740D01*
X177032989Y-113231711D01*
X177340946Y-113413933D01*
X177658292Y-113578598D01*
X177984106Y-113726898D01*
X178317470Y-113860024D01*
X178657462Y-113979169D01*
X179353653Y-114180281D01*
X180065320Y-114339767D01*
X180785102Y-114467162D01*
X181505641Y-114572000D01*
X182919550Y-114752145D01*
X183598200Y-114846519D01*
X184248168Y-114956474D01*
X184862093Y-115091543D01*
X185432617Y-115261262D01*
X185699303Y-115362094D01*
X185952380Y-115475164D01*
X186190925Y-115601663D01*
X186414021Y-115742783D01*
X186620263Y-115898099D01*
X186809153Y-116065823D01*
X186981153Y-116245105D01*
X187136727Y-116435093D01*
X187276335Y-116634938D01*
X187400440Y-116843789D01*
X187509504Y-117060794D01*
X187603990Y-117285105D01*
X187684360Y-117515869D01*
X187751075Y-117752237D01*
X187804598Y-117993358D01*
X187845391Y-118238381D01*
X187873916Y-118486456D01*
X187890635Y-118736731D01*
X187896011Y-118988358D01*
X187890506Y-119240484D01*
X187848701Y-119742833D01*
X187768916Y-120236976D01*
X187654849Y-120716106D01*
X187510198Y-121173419D01*
X187338659Y-121602111D01*
X187143930Y-121995376D01*
X186929709Y-122346410D01*
X186816444Y-122503964D01*
X186699693Y-122648409D01*
X186574804Y-122779645D01*
X186437369Y-122898561D01*
X186288218Y-123005741D01*
X186128177Y-123101771D01*
X185958075Y-123187237D01*
X185778741Y-123262723D01*
X185591001Y-123328816D01*
X185395684Y-123386101D01*
X184985632Y-123476588D01*
X184555207Y-123538867D01*
X184111035Y-123577622D01*
X183659739Y-123597536D01*
X182762273Y-123599576D01*
X181915802Y-123582454D01*
X181173318Y-123583637D01*
X180857632Y-123602802D01*
X180587816Y-123640594D01*
X157442149Y-123640594D01*
X145337461Y-123640594D01*
X143954869Y-123646077D01*
X142835018Y-123639341D01*
X141583342Y-123597536D01*
X140944136Y-123556746D01*
X140315251Y-123499102D01*
X139711115Y-123421911D01*
X139146153Y-123322478D01*
X138634791Y-123198106D01*
X138191456Y-123046100D01*
X137999807Y-122958893D01*
X137830574Y-122863766D01*
X137685560Y-122760384D01*
X137566570Y-122648409D01*
X137401128Y-122535623D01*
X137247060Y-122408587D01*
X137104296Y-122268061D01*
X136972765Y-122114807D01*
X136852399Y-121949583D01*
X136743126Y-121773152D01*
X136644877Y-121586272D01*
X136557582Y-121389705D01*
X136481171Y-121184210D01*
X136415574Y-120970549D01*
X136360720Y-120749481D01*
X136316539Y-120521767D01*
X136259920Y-120049442D01*
X136245155Y-119559657D01*
X136271684Y-119058496D01*
X136338947Y-118552040D01*
X136446384Y-118046374D01*
X136593435Y-117547579D01*
X136779539Y-117061740D01*
X137004136Y-116594939D01*
X137130695Y-116370579D01*
X137266667Y-116153259D01*
X137411982Y-115943740D01*
X137566570Y-115742783D01*
X137729077Y-115561598D01*
X137910869Y-115393926D01*
X138111000Y-115238945D01*
X138328524Y-115095831D01*
X138811965Y-114841918D01*
X139353625Y-114625607D01*
X139945933Y-114440319D01*
X140581320Y-114279472D01*
X141951056Y-114004788D01*
X143402280Y-113748916D01*
X144874436Y-113459217D01*
X145599442Y-113285233D01*
X146306973Y-113083053D01*
X146989461Y-112846097D01*
X147639337Y-112567785D01*
X148058465Y-112371957D01*
X148444221Y-112198515D01*
X149124729Y-111902702D01*
X149424034Y-111772289D01*
X149699076Y-111648178D01*
X149952132Y-111526347D01*
X150185478Y-111402776D01*
X150295471Y-111339081D01*
X150401392Y-111273443D01*
X150503523Y-111205359D01*
X150602150Y-111134327D01*
X150697557Y-111059845D01*
X150790030Y-110981409D01*
X150879852Y-110898517D01*
X150967308Y-110810666D01*
X151052683Y-110717354D01*
X151136261Y-110618078D01*
X151218328Y-110512336D01*
X151299167Y-110399624D01*
X151379064Y-110279441D01*
X151458302Y-110151283D01*
X151537167Y-110014649D01*
X151615944Y-109869034D01*
X152513266Y-108251854D01*
X152711002Y-107869671D01*
X152893612Y-107477168D01*
X153058852Y-107064763D01*
X153204476Y-106622872D01*
X153328242Y-106141914D01*
X153427903Y-105612306D01*
X153501218Y-105024466D01*
X153545940Y-104368812D01*
X153559826Y-103635761D01*
X153540631Y-102815730D01*
X153486112Y-101899137D01*
X153394024Y-100876400D01*
X153145242Y-99086059D01*
X152988186Y-98023262D01*
X152800675Y-96934184D01*
X152693466Y-96399823D01*
X152576204Y-95882931D01*
X152448073Y-95391522D01*
X152308263Y-94933607D01*
X152155958Y-94517201D01*
X151990345Y-94150316D01*
X151902294Y-93987948D01*
X151810612Y-93840965D01*
X151715195Y-93710369D01*
X151615944Y-93597161D01*
X151133725Y-93099438D01*
X150690109Y-92651480D01*
X150478562Y-92447762D01*
X150271607Y-92258403D01*
X150067560Y-92084043D01*
X149864733Y-91925322D01*
X149661441Y-91782879D01*
X149455999Y-91657354D01*
X149351944Y-91601135D01*
X149246719Y-91549385D01*
X149140113Y-91502185D01*
X149031916Y-91459614D01*
X148921917Y-91421751D01*
X148809904Y-91388678D01*
X148695668Y-91360474D01*
X148578998Y-91337218D01*
X148459682Y-91318991D01*
X148337511Y-91305873D01*
X148212272Y-91297943D01*
X148083757Y-91295283D01*
X146607114Y-91597886D01*
X146176991Y-91668432D01*
X145728078Y-91726663D01*
X145263172Y-91767442D01*
X144785072Y-91785632D01*
X144296573Y-91776096D01*
X143800475Y-91733697D01*
X143299574Y-91653299D01*
X142796668Y-91529766D01*
X142545338Y-91450218D01*
X142294555Y-91357959D01*
X142044670Y-91252348D01*
X141796031Y-91132743D01*
X141548990Y-90998501D01*
X141303895Y-90848980D01*
X141061097Y-90683539D01*
X140820945Y-90501534D01*
X140602698Y-90368451D01*
X140338368Y-90248885D01*
X140033363Y-90145615D01*
X139693093Y-90061417D01*
X139322968Y-89999070D01*
X138928396Y-89961352D01*
X138514786Y-89951040D01*
X138087548Y-89970912D01*
X137652091Y-90023745D01*
X137213824Y-90112318D01*
X136995327Y-90170875D01*
X136778157Y-90239408D01*
X136562988Y-90318265D01*
X136350498Y-90407793D01*
X136141362Y-90508339D01*
X135936257Y-90620250D01*
X135735858Y-90743874D01*
X135540843Y-90879558D01*
X135351886Y-91027649D01*
X135169665Y-91188494D01*
X134994855Y-91362441D01*
X134828133Y-91549836D01*
X134508579Y-91940306D01*
X134228790Y-92294209D01*
X133754090Y-92898591D01*
X133541971Y-93152210D01*
X133335201Y-93375539D01*
X133125175Y-93570150D01*
X133016252Y-93657175D01*
X132903289Y-93737610D01*
X132785210Y-93811650D01*
X132660939Y-93879491D01*
X132529402Y-93941330D01*
X132389522Y-93997362D01*
X132240224Y-94047784D01*
X132080432Y-94092792D01*
X131909072Y-94132582D01*
X131725067Y-94167351D01*
X131314820Y-94222610D01*
X130841090Y-94260136D01*
X130295270Y-94281501D01*
X129668758Y-94288274D01*
X128432609Y-94302614D01*
X127880968Y-94305279D01*
X127363804Y-94291375D01*
X126873756Y-94250728D01*
X126403464Y-94173165D01*
X126173425Y-94117360D01*
X125945566Y-94048512D01*
X125718965Y-93965347D01*
X125492703Y-93866594D01*
X125265860Y-93750982D01*
X125037515Y-93617239D01*
X124806749Y-93464093D01*
X124572641Y-93290273D01*
X124334272Y-93094506D01*
X124090721Y-92875521D01*
X123841068Y-92632046D01*
X123584394Y-92362810D01*
X123319778Y-92066540D01*
X123046300Y-91741966D01*
X122469079Y-91002815D01*
X121845371Y-90135183D01*
X121167815Y-89128898D01*
X120926625Y-88745914D01*
X120709528Y-88370930D01*
X120515670Y-88004043D01*
X120344200Y-87645345D01*
X120194263Y-87294932D01*
X120065005Y-86952897D01*
X119955575Y-86619336D01*
X119865119Y-86294343D01*
X119792783Y-85978012D01*
X119737714Y-85670437D01*
X119699059Y-85371714D01*
X119675964Y-85081937D01*
X119667577Y-84801199D01*
X119673044Y-84529597D01*
X119691512Y-84267223D01*
X119722128Y-84014173D01*
X119764038Y-83770541D01*
X119816390Y-83536422D01*
X119878329Y-83311909D01*
X119949003Y-83097098D01*
X120027559Y-82892083D01*
X120113142Y-82696958D01*
X120204901Y-82511818D01*
X120301981Y-82336757D01*
X120403530Y-82171870D01*
X120508694Y-82017252D01*
X120616620Y-81872996D01*
X120726454Y-81739197D01*
X120837344Y-81615950D01*
X120948437Y-81503349D01*
X121167815Y-81310463D01*
X121383317Y-80703242D01*
X121609024Y-79915650D01*
X121714490Y-79464547D01*
X121809049Y-78980751D01*
X121888215Y-78468394D01*
X121947502Y-77931610D01*
X121982423Y-77374531D01*
X121988494Y-76801291D01*
X121961227Y-76216021D01*
X121896136Y-75622857D01*
X121788736Y-75025930D01*
X121634539Y-74429373D01*
X121429061Y-73837320D01*
X121305690Y-73544273D01*
X121167815Y-73253903D01*
X120998490Y-72894962D01*
X120860006Y-72554527D01*
X120750691Y-72232131D01*
X120668878Y-71927309D01*
X120612894Y-71639594D01*
X120581071Y-71368520D01*
X120571739Y-71113619D01*
X120583227Y-70874427D01*
X120613865Y-70650476D01*
X120661985Y-70441301D01*
X120725914Y-70246434D01*
X120803984Y-70065411D01*
X120894525Y-69897763D01*
X120995866Y-69743025D01*
X121106339Y-69600731D01*
X121224271Y-69470414D01*
X121347995Y-69351609D01*
X121475839Y-69243847D01*
X121606133Y-69146664D01*
X121737209Y-69059593D01*
X121995022Y-68913921D01*
X122235919Y-68803101D01*
X122446539Y-68723401D01*
X122613522Y-68671092D01*
X122763141Y-68633722D01*
X122862592Y-68538333D01*
X123112267Y-68257567D01*
X123270620Y-68050199D01*
X123439146Y-67799523D01*
X123608719Y-67506552D01*
X123770211Y-67172299D01*
X123914495Y-66797776D01*
X124032443Y-66383995D01*
X124078689Y-66162699D01*
X124114929Y-65931969D01*
X124140020Y-65691930D01*
X124152824Y-65442709D01*
X124152198Y-65184434D01*
X124137001Y-64917230D01*
X124106093Y-64641223D01*
X124058333Y-64356542D01*
X123992580Y-64063311D01*
X123907693Y-63761658D01*
X123802531Y-63451709D01*
X123675954Y-63133590D01*
X123681483Y-62885292D01*
X123697957Y-62642201D01*
X123725205Y-62404544D01*
X123763054Y-62172544D01*
X123811333Y-61946427D01*
X123869870Y-61726418D01*
X123938495Y-61512742D01*
X124017035Y-61305623D01*
X124105318Y-61105287D01*
X124203175Y-60911959D01*
X124310431Y-60725863D01*
X124426917Y-60547226D01*
X124552461Y-60376270D01*
X124686891Y-60213223D01*
X124830035Y-60058308D01*
X124981723Y-59911750D01*
X125141782Y-59773775D01*
X125310040Y-59644607D01*
X125486328Y-59524472D01*
X125670472Y-59413594D01*
X125862301Y-59312199D01*
X126061644Y-59220511D01*
X126268329Y-59138755D01*
X126482185Y-59067157D01*
X126703039Y-59005941D01*
X126930722Y-58955332D01*
X127165060Y-58915555D01*
X127405883Y-58886836D01*
X127653019Y-58869398D01*
X127906296Y-58863468D01*
X128165542Y-58869270D01*
X128430587Y-58887029D01*
X128688392Y-58905316D01*
X128926613Y-58912832D01*
X129146129Y-58910002D01*
X129347818Y-58897248D01*
X129532561Y-58874992D01*
X129701236Y-58843658D01*
X129854724Y-58803669D01*
X129993903Y-58755447D01*
X130119652Y-58699416D01*
X130232851Y-58635999D01*
X130334380Y-58565617D01*
X130425117Y-58488695D01*
X130505942Y-58405655D01*
X130577733Y-58316920D01*
X130641372Y-58222913D01*
X130697736Y-58124056D01*
X130747705Y-58020774D01*
X130792158Y-57913488D01*
X130868036Y-57688598D01*
X130932402Y-57452770D01*
X130992292Y-57209386D01*
X131054739Y-56961831D01*
X131126780Y-56713487D01*
X131215447Y-56467738D01*
X131268214Y-56346894D01*
X131327775Y-56227967D01*
X131463970Y-55996337D01*
X131618498Y-55772924D01*
X131789792Y-55558018D01*
X131976281Y-55351913D01*
X132176397Y-55154901D01*
X132388569Y-54967275D01*
X132611228Y-54789326D01*
X132842806Y-54621347D01*
X133081731Y-54463631D01*
X133326436Y-54316470D01*
X133575350Y-54180157D01*
X133826904Y-54054983D01*
X134079529Y-53941242D01*
X134331655Y-53839226D01*
X134581713Y-53749226D01*
X134828133Y-53671536D01*
X134971382Y-53616598D01*
X135096971Y-53541606D01*
X135206308Y-53447345D01*
X135300802Y-53334604D01*
X135381860Y-53204169D01*
X135450892Y-53056827D01*
X135558508Y-52714570D01*
X135634917Y-52314128D01*
X135691386Y-51861796D01*
X135789572Y-50826648D01*
X135853823Y-50256421D01*
X135943200Y-49659487D01*
X136068972Y-49042140D01*
X136242406Y-48410677D01*
X136350516Y-48091618D01*
X136474767Y-47771392D01*
X136616566Y-47450783D01*
X136777323Y-47130580D01*
X136958445Y-46811570D01*
X137161341Y-46494538D01*
X137387419Y-46180273D01*
X137638087Y-45869561D01*
X137863433Y-45609955D01*
X138082379Y-45366569D01*
X138295199Y-45138879D01*
X138502167Y-44926363D01*
X138703558Y-44728498D01*
X138899647Y-44544759D01*
X139090708Y-44374624D01*
X139277015Y-44217569D01*
X139458842Y-44073073D01*
X139636464Y-43940610D01*
X139810155Y-43819658D01*
X139980190Y-43709694D01*
X140146844Y-43610194D01*
X140310389Y-43520636D01*
X140471101Y-43440495D01*
X140629254Y-43369250D01*
X140785123Y-43306375D01*
X140938982Y-43251350D01*
X141091104Y-43203649D01*
X141241766Y-43162750D01*
X141539802Y-43099266D01*
X141835285Y-43056711D01*
X142130410Y-43030898D01*
X142427372Y-43017643D01*
X143035587Y-43012062D01*
X143188231Y-43018616D01*
X143335411Y-43037516D01*
X143477615Y-43067622D01*
X143615333Y-43107793D01*
X143749057Y-43156887D01*
X143879274Y-43213765D01*
X144006476Y-43277284D01*
X144131153Y-43346305D01*
X145096419Y-43959601D01*
X145220408Y-44026790D01*
X145346770Y-44088072D01*
X145475994Y-44142304D01*
X145608572Y-44188346D01*
X145744992Y-44225058D01*
X145885745Y-44251298D01*
X146031320Y-44265925D01*
X146182207Y-44267799D01*
X146338897Y-44255778D01*
X146501879Y-44228722D01*
X146671642Y-44185489D01*
X146848678Y-44124939D01*
X147033475Y-44045931D01*
X147226524Y-43947324D01*
X147428315Y-43827977D01*
X147639337Y-43686749D01*
X147855778Y-43539735D01*
X148073273Y-43403607D01*
X148291481Y-43278089D01*
X148510058Y-43162905D01*
X148728665Y-43057778D01*
X148946960Y-42962433D01*
X149164600Y-42876593D01*
X149381245Y-42799982D01*
X149596553Y-42732324D01*
X149810182Y-42673342D01*
X150021791Y-42622762D01*
X150231038Y-42580305D01*
X150437582Y-42545698D01*
X150641081Y-42518662D01*
X151037578Y-42486203D01*
X151417797Y-42480719D01*
X151779006Y-42500000D01*
M02*
